<svg xmlns="http://www.w3.org/2000/svg" width="43.027" height="42.977" viewBox="0 0 43.027 42.977">
  <path id="_1" data-name="+ 1" d="M.812,26.721a20.935,20.935,0,1,1,20.141,15.2A20.958,20.958,0,0,1,.812,26.721ZM16.388,4.955a16.641,16.641,0,1,0,4.569-.643A16.667,16.667,0,0,0,16.388,4.955ZM21.7,27.4a2.193,2.193,0,0,1-1.59-1.756l-.6-2.105-1.76.5a3.545,3.545,0,0,1-1.271.194,2.193,2.193,0,0,1-1.922-1.491,2.244,2.244,0,0,1,.821-2.24,2.966,2.966,0,0,1,.993-.453l1.98-.566-.494-1.729A3.8,3.8,0,0,1,17.6,16.4a2.243,2.243,0,0,1,1.531-1.9,2.114,2.114,0,0,1,2.141.714,2.882,2.882,0,0,1,.512,1.078c.2.691.364,1.391.584,2.042l1.948-.556a4.768,4.768,0,0,1,1.168-.2,2.269,2.269,0,0,1,1.868,1.54,2.16,2.16,0,0,1-.845,2.281,2.544,2.544,0,0,1-.905.4l-2.075.591a16.855,16.855,0,0,0,.494,1.73,3.762,3.762,0,0,1,.252,1.355,2.214,2.214,0,0,1-1.482,1.953,1.7,1.7,0,0,1-.464.061A2.462,2.462,0,0,1,21.7,27.4Z" transform="translate(0.551 0.551)" fill="#ffdf00" stroke="rgba(0,0,0,0)" stroke-width="1"/>
</svg>
