<svg xmlns="http://www.w3.org/2000/svg" width="31.075" height="31.075" viewBox="0 0 31.075 31.075">
  <g id="_2" data-name="+ 2" transform="translate(222.751 -670.401) rotate(22)">
    <g id="Group_1046" data-name="Group 1046" transform="translate(52.897 701.679)">
      <g id="Group_1044" data-name="Group 1044">
        <g id="Group_1043" data-name="Group 1043">
          <path id="Path_17009" data-name="Path 17009" d="M64.832,704.133a9.482,9.482,0,1,1-9.482,9.482,9.493,9.493,0,0,1,9.482-9.482m0-2.453a11.936,11.936,0,1,0,11.935,11.936,11.936,11.936,0,0,0-11.935-11.936Z" transform="translate(-52.897 -701.679)" fill="#ff52a8"/>
        </g>
      </g>
      <g id="Group_1045" data-name="Group 1045" transform="translate(8.12 10.479)">
        <path id="Path_17010" data-name="Path 17010" d="M66.979,714.259c.265.023.553.023.819.023a4.308,4.308,0,0,1,1.416.022,1.571,1.571,0,0,1,1.04,1.417,1.467,1.467,0,0,1-.8,1.239,3.394,3.394,0,0,1-1.615.177c-.841,0-1.7-.044-2.567,0a5.533,5.533,0,0,1-1.726-.154,1.455,1.455,0,0,1-.907-1.571,1.287,1.287,0,0,1,.377-.664c.664-.665,1.394-.488,2.213-.488Z" transform="translate(-62.624 -714.232)" fill="#ff52a8"/>
      </g>
    </g>
  </g>
</svg>
