<svg xmlns="http://www.w3.org/2000/svg" width="21.081" height="9.604" viewBox="0 0 21.081 9.604">
  <path id="_123" data-name="123" d="M-8.144,0h1.422V-9.16H-8.138l-2.412,1.7V-6l2.3-1.625h.108Zm4.005-6.481h1.346A1.6,1.6,0,0,1-1.079-8.15,1.491,1.491,0,0,1,.54-6.621c0,.724-.3,1.168-1.466,2.361L-4.062-1.028V0h6.17V-1.276H-2.12v-.108L-.1-3.371C1.5-4.958,1.968-5.707,1.968-6.767A2.705,2.705,0,0,0-.99-9.382,2.9,2.9,0,0,0-4.139-6.481ZM6-4.12H7.141c1.193,0,1.93.59,1.93,1.542,0,.92-.787,1.542-1.911,1.542S5.281-1.6,5.2-2.476H3.834C3.91-.844,5.243.222,7.179.222c1.911,0,3.352-1.143,3.352-2.7A2.173,2.173,0,0,0,8.525-4.735v-.108a2.111,2.111,0,0,0,1.657-2.1c.006-1.308-1.066-2.437-2.958-2.437A2.9,2.9,0,0,0,4.005-6.69H5.351a1.586,1.586,0,0,1,1.79-1.466A1.458,1.458,0,0,1,8.779-6.748,1.51,1.51,0,0,1,7.1-5.288H6Z" transform="translate(10.55 9.382)" fill="#6a6a7c"/>
</svg>
