<svg xmlns="http://www.w3.org/2000/svg" width="13" height="15.944" viewBox="0 0 13 15.944">
  <path id="apple" d="M16.3,7.843a3.4,3.4,0,0,1,2.4-1.2,3.461,3.461,0,0,1-.884,2.5A2.718,2.718,0,0,1,15.5,10.293,3.151,3.151,0,0,1,16.3,7.843Zm4.572,12.769c-.646.983-1.362,1.973-2.449,1.973-1.035,0-1.406-.654-2.6-.654-1.283,0-1.644.654-2.626.654-1.088,0-1.857-1.043-2.538-2.016A9.932,9.932,0,0,1,9,15.378a5.464,5.464,0,0,1,.672-2.865A4,4,0,0,1,12.98,10.5c1.043-.035,1.972.716,2.609.716.61,0,1.751-.716,3.042-.716a3.547,3.547,0,0,1,2.963,1.583A3.491,3.491,0,0,0,22,18.341,8.6,8.6,0,0,1,20.876,20.613Z" transform="translate(-9 -6.641)" fill="#6a6a7c"/>
</svg>
