<svg xmlns="http://www.w3.org/2000/svg" xmlns:xlink="http://www.w3.org/1999/xlink" width="269.153" height="511.128" viewBox="0 0 269.153 511.128">
  <defs>
    <linearGradient id="linear-gradient" x1="0.5" x2="0.5" y2="1" gradientUnits="objectBoundingBox">
      <stop offset="0" stop-color="#5ed8fc"/>
      <stop offset="1" stop-color="#35cdfa"/>
    </linearGradient>
    <linearGradient id="linear-gradient-8" x1="350.158" y1="469.851" x2="351.749" y2="469.104" gradientUnits="objectBoundingBox">
      <stop offset="0.244" stop-color="#8f8f8f"/>
      <stop offset="0.547" stop-color="#b1b1b0"/>
    </linearGradient>
    <clipPath id="clip-path">
      <path id="Path_19055" data-name="Path 19055" d="M96.412.329,84.8,3.225a1.587,1.587,0,0,0-1.19,1.423L84,6.186a6.329,6.329,0,0,1-4.6,7.653L30.011,26.152a6.339,6.339,0,0,1-7.656-4.6l-.264-1.063a1.577,1.577,0,0,0-1.9-1.162L8.607,22.215A11.4,11.4,0,0,0,.333,35.989L54.271,252.361a11.388,11.388,0,0,0,13.761,8.265l87.793-21.883a11.386,11.386,0,0,0,8.274-13.767L110.167,8.612A11.39,11.39,0,0,0,96.412.329Z" fill="none"/>
    </clipPath>
    <linearGradient id="linear-gradient-9" x1="0.5" x2="0.5" y2="1" gradientUnits="objectBoundingBox">
      <stop offset="0" stop-color="#ffdf00"/>
      <stop offset="1" stop-color="#ff52a8"/>
    </linearGradient>
    <linearGradient id="linear-gradient-10" x1="-0.237" y1="0.488" x2="1.172" y2="0.483" xlink:href="#linear-gradient-9"/>
  </defs>
  <g id="battery2" transform="matrix(0.934, -0.358, 0.358, 0.934, -86.181, 43.911)">
    <path id="Path_16752" data-name="Path 16752" d="M61.821,35.08l-2.9-1.284-8.153-3.615L38.289,24.659a3.756,3.756,0,0,1-.507-.281L27.745,22.816l-.716-.111c-1.449.068-2.811.111-4.105.111a41.439,41.439,0,0,1-12.737-1.673,15.411,15.411,0,0,1-7.731-4.976C-2.1,10.348,1.078,2.827,1.078,2.827L34.634,0,45.908,1.631l.182-.014a5.449,5.449,0,0,1,2.221.449L61.1,7.743" transform="translate(174.92 150.03) rotate(17)" fill="#f9cda5"/>
    <path id="Path_16753" data-name="Path 16753" d="M7.452,69.947l3.386-52.14L9.663,19.574C9.663,12.581,4.592,4.581,0,0L8.153,3.609l9.361,4.146L24,29.214S9.7,46.613,7.452,69.947Z" transform="translate(214.649 193.74) rotate(17)" fill="#ce926a"/>
    <path id="Path_16754" data-name="Path 16754" d="M0,0" transform="translate(149.752 260.171) rotate(17)" fill="none" stroke="#f9cda5" stroke-miterlimit="10" stroke-width="1.037"/>
    <g id="Group_817" data-name="Group 817" transform="translate(148.809 33.222) rotate(17)">
      <path id="Path_16755" data-name="Path 16755" d="M0,0C2.449,5.082,4.649,10.253,6.763,15.458s4.111,10.45,6.065,15.712c1.908,5.28,3.783,10.572,5.513,15.916s3.4,10.71,4.808,16.173C20.7,58.178,18.5,53.005,16.383,47.8s-4.111-10.451-6.062-15.714c-1.9-5.281-3.779-10.572-5.509-15.916S1.41,5.461,0,0Z" transform="translate(140.872 129.008)" fill="#efaf84"/>
      <g id="Group_1378" data-name="Group 1378" transform="translate(0 9.171) rotate(-3)">
        <g id="Group_1378-2" data-name="Group 1378">
          <rect id="Rectangle_1778" data-name="Rectangle 1778" width="106.647" height="225.14" rx="15.631" transform="translate(74.603 0) rotate(19.352)" fill="#fcf8f7"/>
          <path id="Path_19056" data-name="Path 19056" d="M8.029,11.533l11-3.608a.832.832,0,0,0,.016-1.576L1.111.05A.832.832,0,0,0,.139,1.29l6.331,9.7A1.358,1.358,0,0,0,8.029,11.533Z" transform="translate(112.29 21.711)" fill="#161615"/>
        </g>
        <g id="Group_1381" data-name="Group 1381" transform="translate(78.153 47.182)">
          <g id="Group_1379" data-name="Group 1379" transform="translate(9.064)">
            <path id="Path_19057" data-name="Path 19057" d="M35.494,24.45a3.493,3.493,0,0,0-1.169-.169A15.109,15.109,0,0,0,24.851,8.528,19.125,19.125,0,0,1,26.04,4.7a2.358,2.358,0,1,0-1.426-.5,19.2,19.2,0,0,1-1.463,3.728,15.112,15.112,0,0,0-17.233,6.4,3.518,3.518,0,0,0-1.078-.65,2.081,2.081,0,0,0-2.689,1.19L.1,23.076a2.082,2.082,0,0,0,1.354,2.61,2.151,2.151,0,0,0,.271.075,7.3,7.3,0,0,0,4.832,7.652L21.893,38.8h0a7.3,7.3,0,0,0,8.554-2.946c.062.026.12.059.185.081a2.081,2.081,0,0,0,2.689-1.191l3.526-7.684A2.082,2.082,0,0,0,35.494,24.45ZM28.61,32.3a5.6,5.6,0,0,1-7.225,3.2L8.91,31.113A5.6,5.6,0,0,1,5.271,24.1l.1-.294c1.971-5.612,8.433-8.474,14.406-6.377l1.677.589c5.973,2.1,9.227,8.371,7.256,13.984Z" transform="translate(0 1.373)" fill="url(#linear-gradient)"/>
            <path id="Path_19058" data-name="Path 19058" d="M4.521.239C2.663-.413.707.315.163,1.865l-.112.283a.908.908,0,0,0,1.713.6l.111-.282c.206-.586,1.164-.826,2.046-.516S5.4,3.046,5.193,3.63l-.112.283a.907.907,0,0,0,.555,1.155v0a.907.907,0,0,0,1.155-.554l.113-.283C7.449,2.683,6.379.892,4.521.239Z" transform="translate(19.11 25.986)" fill="url(#linear-gradient)"/>
            <path id="Path_19059" data-name="Path 19059" d="M4.521.239A3.321,3.321,0,0,0,.164,1.865l-.113.282a.908.908,0,0,0,1.713.6l.112-.283c.205-.585,1.163-.825,2.046-.515S5.4,3.047,5.194,3.631l-.113.283a.906.906,0,0,0,.555,1.155h0a.908.908,0,0,0,1.156-.554l.112-.283C7.45,2.683,6.379.892,4.521.239Z" transform="translate(9.551 22.629)" fill="url(#linear-gradient)"/>
            <path id="Path_19060" data-name="Path 19060" d="M3.275,7.045,3.241,7l-.778-.931L1.035,10.587A.531.531,0,0,1,.014,10.3L1.46,4.361a.731.731,0,0,1,1.273-.3h0l.024.027.746.893L4.752.323a.453.453,0,0,1,.882.2L4.551,6.69a.728.728,0,0,1-1.276.355Z" transform="translate(3.817)" fill="#ffdf00"/>
            <path id="Path_19061" data-name="Path 19061" d="M.1,5.717,3.107.226a.453.453,0,0,1,.812.4L1.984,5.036l1.142-.23L3.161,4.8h0a.73.73,0,0,1,.861.572.719.719,0,0,1-.058.461L1.38,11.37A.531.531,0,0,1,.4,10.958L2.11,6.541.92,6.782l-.051.011h0A.729.729,0,0,1,.1,5.717Z" transform="translate(37.853 11.361)" fill="#ffdf00"/>
          </g>
          <g id="Group_1380" data-name="Group 1380" transform="translate(0 38.912)">
            <path id="Path_19062" data-name="Path 19062" d="M8.823,1.678A4.309,4.309,0,0,0,7.954.832a5.063,5.063,0,0,0-1.107-.6A4.424,4.424,0,0,0,4.576.083a4.579,4.579,0,0,0-2,.916,4.776,4.776,0,0,0-.847.882,4.3,4.3,0,0,0-.577,1.108L.074,6.056a1.082,1.082,0,0,0,.057.914,1.149,1.149,0,0,0,.7.643,1.086,1.086,0,0,0,.914-.057,1.1,1.1,0,0,0,.637-.687L3.52,3.644a1.673,1.673,0,0,1,.989-.968A2.166,2.166,0,0,1,6.04,2.551,1.946,1.946,0,0,1,7.163,3.621,1.784,1.784,0,0,1,7.34,4.986L6.208,8.21a1.168,1.168,0,0,0,.045.919,1.218,1.218,0,0,0,1.642.577A1.16,1.16,0,0,0,8.5,9.017l1.09-3.1A4.223,4.223,0,0,0,9.77,3.683,4.636,4.636,0,0,0,8.823,1.678Z" transform="translate(18.741 6.582)" fill="url(#linear-gradient)"/>
            <path id="Path_19063" data-name="Path 19063" d="M8.822,1.678A4.237,4.237,0,0,0,7.954.832a5.023,5.023,0,0,0-1.107-.6A4.421,4.421,0,0,0,4.577.083a4.578,4.578,0,0,0-2,.916,4.805,4.805,0,0,0-.847.882,4.308,4.308,0,0,0-.577,1.108L.074,6.056a1.083,1.083,0,0,0,.058.914,1.149,1.149,0,0,0,.7.643,1.086,1.086,0,0,0,.914-.057,1.106,1.106,0,0,0,.637-.687L3.52,3.644a1.668,1.668,0,0,1,.989-.968,2.159,2.159,0,0,1,1.531-.126A1.941,1.941,0,0,1,7.163,3.621,1.784,1.784,0,0,1,7.34,4.986L6.208,8.21a1.164,1.164,0,0,0,.045.919,1.218,1.218,0,0,0,1.641.577A1.164,1.164,0,0,0,8.5,9.017l1.09-3.1a4.214,4.214,0,0,0,.176-2.232A4.627,4.627,0,0,0,8.822,1.678Z" fill="url(#linear-gradient)"/>
            <path id="Path_19064" data-name="Path 19064" d="M5.96.253A4.476,4.476,0,1,0,8.7,5.96,4.481,4.481,0,0,0,5.96.253ZM3.732,6.6A2.247,2.247,0,1,1,6.6,5.221,2.251,2.251,0,0,1,3.732,6.6Z" transform="translate(10.262 3.275)" fill="url(#linear-gradient)"/>
            <path id="Path_19065" data-name="Path 19065" d="M5.959.253A4.476,4.476,0,1,0,8.7,5.96,4.48,4.48,0,0,0,5.959.253ZM6.6,5.221A2.247,2.247,0,1,1,5.221,2.356,2.252,2.252,0,0,1,6.6,5.221Z" transform="translate(29.003 9.857)" fill="url(#linear-gradient)"/>
          </g>
        </g>
      </g>
      <g id="Group_1382" data-name="Group 1382" transform="translate(10.038 140.645) rotate(-8)">
        <path id="Path_19066" data-name="Path 19066" d="M1.534,141.134C-11.407,270.9,60.239,254.426,114.19,0" transform="translate(5.896 0)" fill="none" stroke="#fcf8f7" stroke-miterlimit="10" stroke-width="9.921"/>
        <g id="Group_1383" data-name="Group 1383" transform="translate(0 95.006)">
          <path id="Rectangle_1779" data-name="Rectangle 1779" d="M2.518,0H20.837a0,0,0,0,1,0,0V9.515a0,0,0,0,1,0,0H2.518A2.518,2.518,0,0,1,0,7V2.518A2.518,2.518,0,0,1,2.518,0Z" transform="translate(2.429 51.454) rotate(-85.152)" fill="#f5f5f5"/>
          <g id="Group_1382-2" data-name="Group 1382" transform="translate(4.102)">
            <path id="Path_19067" data-name="Path 19067" d="M0,12.424a.542.542,0,0,0,.495.587L12.152,14a.542.542,0,0,0,.586-.495L13.785,1.17,1.055,0Z" transform="translate(0 2.399)" fill="url(#linear-gradient-8)"/>
            <path id="Path_19068" data-name="Path 19068" d="M.161.5,0,2.4l12.73,1.17L12.9,1.577A.543.543,0,0,0,12.4.99L.748,0A.542.542,0,0,0,.161.5Z" transform="translate(1.055)" fill="#4c4d4d"/>
          </g>
          <rect id="Rectangle_1780" data-name="Rectangle 1780" width="26.855" height="16.717" rx="2.012" transform="translate(0 37.957) rotate(-85.152)" fill="#f5f5f5" stroke="#fcf8f7" stroke-width="1"/>
        </g>
      </g>
    </g>
    <g id="Group_972" data-name="Group 972" transform="matrix(0.891, 0.454, -0.454, 0.891, 122.532, 0)">
      <path id="Union_17" data-name="Union 17" d="M163.095,247.171,74.068,269.365A16.371,16.371,0,0,1,54.106,257.7L.441,42.416A16.374,16.374,0,0,1,12.592,22.729L101.616.536a16.365,16.365,0,0,1,19.966,11.676L175.24,227.484a16.363,16.363,0,0,1-11.962,19.633Z" fill="#35cdfa"/>
      <g id="Group_825" data-name="Group 825" transform="translate(49.101 15.236)">
        <g id="Group_824" data-name="Group 824" transform="translate(19.161)">
          <path id="Path_16759" data-name="Path 16759" d="M3.878,1.5A1.967,1.967,0,1,1,1.495.061v0A1.969,1.969,0,0,1,3.878,1.494Z" fill="#00a2e2"/>
        </g>
        <path id="Path_16760" data-name="Path 16760" d="M14.615,2.149,1.3,5.471a1.024,1.024,0,0,1-1.23-.739L.031,4.576A1.01,1.01,0,0,1,.77,3.349L14.087.027A1.013,1.013,0,0,1,15.3.77h0l.04.159A1.009,1.009,0,0,1,14.615,2.149Z" transform="translate(0 2.461)" fill="#00a2e2"/>
      </g>
      <g id="Group_892" data-name="Group 892" transform="translate(5.365 4.538)">
        <g id="Group_962" data-name="Group 962">
          <g id="Group_1051" data-name="Group 1051">
            <g id="Group_1377" data-name="Group 1377">
              <g id="Group_1376" data-name="Group 1376" clip-path="url(#clip-path)">
                <g id="Group_1050" data-name="Group 1050" transform="translate(-5.737 -6.163)">
                  <g id="Group_961" data-name="Group 961" transform="translate(0 0)">
                    <g id="Group_891" data-name="Group 891">
                      <g id="Group_822" data-name="Group 822">
                        <rect id="d72b1ed43bbcb554c687b3d93fc3e187" width="117.386" height="250.871" transform="matrix(0.97, -0.242, 0.242, 0.97, 0, 28.396)" fill="#fcfefe"/>
                      </g>
                    </g>
                  </g>
                </g>
              </g>
            </g>
          </g>
        </g>
      </g>
      <g id="surface1" transform="translate(56.964 93.232)">
        <path id="Path_18143" data-name="Path 18143" d="M48.778,11.486A9.207,9.207,0,0,0,37.738,4.595c-.109.028-.218.053-.326.084l-3.026.758-.761-3.03A2.944,2.944,0,0,0,30.194.049a2.844,2.844,0,0,0-.357.09L11.667,4.691A2.946,2.946,0,0,0,9.309,8.125a2.826,2.826,0,0,0,.09.354l.758,3.03-3.029.758A9.2,9.2,0,0,0,.239,23.306c.025.109.05.217.081.323L13.982,78.145a9.2,9.2,0,0,0,11.036,6.888c.109-.025.218-.053.326-.081l30.284-7.591A9.2,9.2,0,0,0,62.52,66.326c-.028-.109-.053-.217-.084-.326Zm-6.059,1.52L54.1,58.434,17.76,67.541,6.376,22.112a2.948,2.948,0,0,1,1.914-3.7,3.486,3.486,0,0,1,.357-.087l9.085-2.277L16.212,9.989,28.327,6.953l1.519,6.059,9.085-2.278a2.941,2.941,0,0,1,3.7,1.914A2.716,2.716,0,0,1,42.719,13.006Z" fill="url(#linear-gradient-9)"/>
      </g>
      <path id="Rectangle_1777" data-name="Rectangle 1777" d="M1.627,0H48.165a0,0,0,0,1,0,0V37.551a0,0,0,0,1,0,0H1.627A1.627,1.627,0,0,1,0,35.924V1.627A1.627,1.627,0,0,1,1.627,0Z" transform="translate(102.24 116.32) rotate(75.99)" fill="url(#linear-gradient-10)"/>
    </g>
    <path id="Path_16761" data-name="Path 16761" d="M102.441,0A9.806,9.806,0,0,1,104.6,7.292c-.026.283-.046.564-.095.834l17.466,57.682s-.175,3.117-.42,8.376c-.012.011-.012.011-.012.023-1.066,20.852-3.7,75.523-3.726,106.345a173.7,173.7,0,0,0,.656,18.907H56.4v-8.694c0-.011-.011-.011-.022-.022a.434.434,0,0,0-.073-.081c-13.024-21.039-21.577-46.3-24.317-65.624-.376-2.484-.622-4.874-.773-7.16a1.778,1.778,0,0,0-.037-.222c-.362-3.772-1.921-12.883-3.045-19.269-.669-3.749-1.184-6.56-1.23-6.793v-.014L5.434,62.293,2.575,58.4A13.292,13.292,0,0,1,24.013,42.683l4.123,5.636,7.11,9.686L38.4,62.293l7.509,10.252,7.133,9.744a.147.147,0,0,1,.046.047c.658.61,9.644,8.656,16.964-3.033.058-1.159,23.52-49.127,23.52-49.127" transform="translate(156.259 169.731) rotate(17)" fill="#ffc799"/>
    <path id="Path_16762" data-name="Path 16762" d="M0,191.421H79.66V4.266C59.042-13.245,0,28.816,0,28.816Z" transform="translate(146.076 351.989) rotate(17)" fill="#35cdfa"/>
    <path id="Path_16763" data-name="Path 16763" d="M79.66,0S61.386,165.187,0,180.97H79.66Z" transform="translate(143.02 361.983) rotate(17)" fill="#35cdfa"/>
  </g>
</svg>
