<svg xmlns="http://www.w3.org/2000/svg" width="17" height="17.002" viewBox="0 0 17 17.002">
  <path id="call" d="M16.923,20H16.9c-2.9-.095-6.306-2.909-8.65-5.255S3.093,9,3,6.1C2.969,5.09,5.459,3.287,5.484,3.27a1.2,1.2,0,0,1,1.657.117c.2.276,2.085,3.136,2.29,3.46a1.359,1.359,0,0,1-.084,1.34c-.146.278-.632,1.133-.86,1.532a20.214,20.214,0,0,0,2.24,2.552,20.3,20.3,0,0,0,2.552,2.241c.4-.228,1.253-.714,1.532-.861a1.37,1.37,0,0,1,1.333-.087c.346.212,3.2,2.108,3.46,2.292a.982.982,0,0,1,.391.73,1.421,1.421,0,0,1-.27.931C19.71,17.541,17.928,20,16.923,20Z" transform="translate(-3.001 -2.998)" fill="#6a6a7c"/>
</svg>
