<svg xmlns="http://www.w3.org/2000/svg" width="13.5" height="17.501" viewBox="0 0 13.5 17.501">
  <g id="code-shrae" transform="translate(-617 -523.5)">
    <path id="Path_25787" data-name="Path 25787" d="M630.25,528.8h-3.606a.616.616,0,0,0-.535.29.582.582,0,0,0,0,.611.62.62,0,0,0,.518.288h2.65v9.822H618.222v-9.823h2.634a.657.657,0,0,0,.535-.29.582.582,0,0,0,0-.611.62.62,0,0,0-.518-.288H617.25a.25.25,0,0,0-.25.25v11.7a.25.25,0,0,0,.25.25h13a.25.25,0,0,0,.25-.25v-11.7A.25.25,0,0,0,630.25,528.8Z" fill="#6a6a7c"/>
    <path id="Path_25788" data-name="Path 25788" d="M621.294,527.415l1.845-1.758v8.9a.594.594,0,0,0,.309.517.625.625,0,0,0,.6,0,.6.6,0,0,0,.31-.52v-8.9l1.847,1.759a.63.63,0,0,0,.861,0,.6.6,0,0,0,0-.859l-2.893-2.756-.26-.236a.249.249,0,0,0-.336,0l-3.15,2.99a.6.6,0,0,0,0,.862A.633.633,0,0,0,621.294,527.415Z" fill="#6a6a7c"/>
  </g>
</svg>
