<svg xmlns="http://www.w3.org/2000/svg" width="124.894" height="262.921" viewBox="0 0 124.894 262.921">
  <g id="code-parrainage" transform="translate(-212.442 79.388)">
    <g id="Group_5453" data-name="Group 5453" transform="translate(212.442 -79.239)">
      <g id="Group_5449" data-name="Group 5449" transform="translate(0 63.128)">
        <path id="Path_21162" data-name="Path 21162" d="M260.011,24.794,212.442-62.411l1.47-.337,47.57,87.206Z" transform="translate(-212.442 62.748)" fill="#f2f2fa"/>
      </g>
      <g id="Group_5450" data-name="Group 5450" transform="translate(38.339 50.811)">
        <path id="Path_21164" data-name="Path 21164" d="M243.723,31.332l-1.508.014L222.524-65.974l1.508-.014Z" transform="translate(-223.524 65.987)" fill="#f2f2fa"/>
      </g>
      <g id="Group_5451" data-name="Group 5451" transform="translate(69.351 52.411)">
        <path id="Path_21166" data-name="Path 21166" d="M232.18,27.213l-1.5-.154,35.572-92.625,1.5.154Z" transform="translate(-230.679 65.567)" fill="#f2f2fa"/>
      </g>
      <g id="Group_5452" data-name="Group 5452" transform="translate(79.53 62.132)">
        <path id="Path_21167" data-name="Path 21167" d="M234.84,20.178l-1.485-.261L277.225-63.01l1.484.261Z" transform="translate(-233.356 63.01)" fill="#f2f2fa"/>
      </g>
      <path id="Path_21168" data-name="Path 21168" d="M270.885-79.349c-18.9,13.081-19.014,61.227-19.014,61.227a19.027,19.027,0,0,0-19.017-16.226A19.024,19.024,0,0,0,213.989-15.6l-1.513.03c-.03-.327-.03-.624-.03-.92A62.421,62.421,0,0,1,270.885-79.349Z" transform="translate(-212.44 79.349)" fill="#07e28e"/>
      <path id="Path_21169" data-name="Path 21169" d="M281.818-18.49c0,.323,0,.62-.027.92l-2.137.027c-1.156-6.556-4.894-11.359-9.286-11.3-4.358.03-9.522,3.738-10.56,10.294h-.057c-.03-.148-.03-.327-.061-.475a11.9,11.9,0,0,0,.445-4.3C258.888-40.5,246.312-69.04,232.25-79.037A62.5,62.5,0,0,1,281.818-18.49Z" transform="translate(-156.925 80.223)" fill="#07e28e"/>
    </g>
    <g id="Group_5455" data-name="Group 5455" transform="translate(249.218 14.335)">
      <g id="Group_5454" data-name="Group 5454">
        <path id="Path_24149" data-name="Path 24149" d="M227.771-47.737c1.821-1.491,1.643-11.082-2.048-7.632s-.92,3.3-.92,3.3.436,2.036.62,2.925a.774.774,0,0,0,.959.687c.144.863-.4.512-.4.512S225.95-46.246,227.771-47.737Z" transform="translate(-139.728 131.893) rotate(-21)" fill="#feac84"/>
        <path id="Path_24148" data-name="Path 24148" d="M224.811-49.059s-1.266-9.229,2.921-7.639,3.484,4.46,2.27,4.033a2.8,2.8,0,0,0-1.264,2.35,11.086,11.086,0,0,0-.193,1.856c-.144.863-1.968,1.579-1.968,1.579Z" transform="translate(-223.581 -30.167) rotate(20)" fill="#feac84"/>
        <path id="Path_21170" data-name="Path 21170" d="M246.886-28.154l1.9,5.685a2.141,2.141,0,0,0,2.981,1.24l11.7-5.8a1.437,1.437,0,0,0-.517-2.719l-9.857-.844-3.571-.7Z" transform="translate(-58.229 -75.89) rotate(70)" fill="#07e28e"/>
        <path id="Path_21171" data-name="Path 21171" d="M240.311-22.455l-1.59,5.784a2.136,2.136,0,0,0,1.783,2.689l12.941,1.707a1.436,1.436,0,0,0,1.088-2.544l-7.716-6.195-2.571-2.571Z" transform="translate(-164.269 18.202) rotate(39)" fill="#07e28e"/>
        <path id="Path_21172" data-name="Path 21172" d="M293.857-11.578,290.1-8.692,271.812-25.751,241.87-8.4,236.1-10.43,231.363-13.4c.415-.612,21.193-14.88,33.08-23.014a9.947,9.947,0,0,1,13.766,2.5Z" transform="translate(-55.035 -122.351) rotate(70)" fill="#36384a"/>
        <path id="Path_21173" data-name="Path 21173" d="M277.768-29.613c5.307,5.027,26.438,25.088,26.438,25.088L299.593-2.51,266.459-19.753,242.049-6.991S230.112-.925,227.705-11.6a15.55,15.55,0,0,1,5.9-16.2l12.73,2.054,18.811-6.8C268.408-34.047,272.461-34.64,277.768-29.613Z" transform="translate(-68.196 -126.73) rotate(70)" fill="#404255"/>
        <path id="Path_21174" data-name="Path 21174" d="M232.838-40.132l21.949-2.118s6.655,40.35,5.522,50a143.929,143.929,0,0,1-25.832,1.977s-13-25.026-8.761-48.321Z" transform="translate(-214.394 89.753)" fill="#ffdf00"/>
        <path id="Path_21175" data-name="Path 21175" d="M227.52-42.99l3.255,6.605a3.16,3.16,0,0,0,3.708,1.639h0a3.159,3.159,0,0,0,2.27-3.388l-.555-4.951Z" transform="translate(-206.958 87.413)" fill="#e89372"/>
        <path id="Path_21176" data-name="Path 21176" d="M241.946-46.4s2.278,16.3-3.791,17.295c-7.1,1.164-11.378-9.058-11.378-9.058s2.274-5.43,4.388-6.255S241.946-46.4,241.946-46.4Z" transform="translate(-209.04 78.128)" fill="#feac84"/>
        <path id="Path_21177" data-name="Path 21177" d="M228.744-34.6s16.089-1.137,17.1-13.412A32,32,0,0,1,233.8-45.579c-6.206-.145-11.115,9.195-3.32,16.413Z" transform="translate(-209.916 73.59)" fill="#36384a"/>
        <path id="Path_21178" data-name="Path 21178" d="M228.611-43.562c-2.369-1.616-2.746,2.46.936,3.445S228.611-43.562,228.611-43.562Z" transform="translate(-208.962 85.027)" fill="#feac84"/>
        <path id="Path_21179" data-name="Path 21179" d="M241.956-2.618,234.587,3.6l-1.879-2.027L222.479-25.442a5.615,5.615,0,0,1-.148-3.54l7.354-25.76,4.411,1.388-4.411,25.908Z" transform="matrix(0.995, -0.105, 0.105, 0.995, -218.169, 77.856)" fill="#ffdf00"/>
        <path id="Path_21180" data-name="Path 21180" d="M252.654-53.335,251.627-31.58a8.28,8.28,0,0,1-.73,3.031l-15.142,33.4-4.476-11.7,3.034-2.746L243.8-30.725l4.658-22.869Z" transform="translate(-196.423 57.96)" fill="#ffdf00"/>
      </g>
      <path id="Path_21181" data-name="Path 21181" d="M260.464.742S246.692,3.31,234.471,2.785c-8.209-9.8-10.275-19.8-9.568-40.56.122-.688.209-1.358.262-2,0,0,2.247,20.542,8.347,28.083C239.476-4.307,259.618.9,260.464.742Z" transform="translate(-214.388 96.701)" fill="#e3ca1c"/>
    </g>
    <path id="Path_21182" data-name="Path 21182" d="M286.59-22.343a11.9,11.9,0,0,1-.445,4.3c-2.137-16.135-14.564-27.38-31.3-27.231a32.815,32.815,0,0,0-32.038,27.262s.118-48.146,19.014-61.227c1.129-.091,2.285-.148,3.441-.148A62.506,62.506,0,0,1,258.7-78.052C272.767-68.055,285.343-39.519,286.59-22.343Z" transform="translate(29.062 0)" fill="#50fdbb"/>
  </g>
</svg>
