<svg xmlns="http://www.w3.org/2000/svg" xmlns:xlink="http://www.w3.org/1999/xlink" width="298.807" height="344.011" viewBox="0 0 298.807 344.011">
  <defs>
    <linearGradient id="linear-gradient" x1="0.814" y1="0.921" x2="0.434" y2="-0.058" gradientUnits="objectBoundingBox">
      <stop offset="0" stop-color="#07e28e"/>
      <stop offset="1" stop-color="#36f7ad"/>
    </linearGradient>
  </defs>
  <path id="flahs" d="M-1277.659,2420.9a1.663,1.663,0,0,1-.675-2.246l6.73-12.489a2.291,2.291,0,0,1,1.061-1,2.284,2.284,0,0,1,3.031,1.126l.046.1,1.517,3.31,4.59-7.336a1.419,1.419,0,0,1,1.776-.545,1.417,1.417,0,0,1,.72,1.871l-5.339,12.039a2.278,2.278,0,0,1-1.136,1.138,2.267,2.267,0,0,1-3-1.116l0,0-.067-.148-1.578-3.451-5.5,8.21a1.666,1.666,0,0,1-1.38.732A1.659,1.659,0,0,1-1277.659,2420.9Zm245.262-119.361-10.892-9.5a1.554,1.554,0,0,1-.15-2.194,1.553,1.553,0,0,1,2.017-.283l7.969,5.167-.027-4,0-.121v0a2.51,2.51,0,0,1,2.493-2.525,2.5,2.5,0,0,1,1.517.5l12.485,9.3a1.826,1.826,0,0,1,.371,2.548,1.832,1.832,0,0,1-2.4.473l-9.281-5.612.033,4.165v.177h0a2.487,2.487,0,0,1-2.471,2.5h-.031A2.494,2.494,0,0,1-1032.4,2301.537Zm-270.955,0-10.892-9.5h0a1.556,1.556,0,0,1-.15-2.194,1.555,1.555,0,0,1,2.019-.283l7.968,5.167-.029-4v-.123a2.509,2.509,0,0,1,2.492-2.525,2.493,2.493,0,0,1,1.515.5l12.487,9.3a1.828,1.828,0,0,1,.372,2.548,1.834,1.834,0,0,1-2.406.473l-9.279-5.612.031,4.165,0,.177h0a2.486,2.486,0,0,1-2.469,2.5h-.031A2.49,2.49,0,0,1-1303.351,2301.537Zm10.153-135.121-7.061-11.375-2.3,4.6-.1.2,0,0a3.071,3.071,0,0,1-4.121,1.368,3.069,3.069,0,0,1-1.484-1.594l-6.657-16.548h0a1.925,1.925,0,0,1,1.064-2.5,1.924,1.924,0,0,1,2.379.822l5.868,10.149,2.21-4.41.065-.135a3.1,3.1,0,0,1,4.157-1.382,3.083,3.083,0,0,1,1.39,1.4l8.522,17.227a2.256,2.256,0,0,1-1.02,3.01,2.253,2.253,0,0,1-1,.232A2.259,2.259,0,0,1-1293.2,2166.417Zm240.844.4a2.257,2.257,0,0,1-.912-3.045l9.117-16.916a3.1,3.1,0,0,1,1.438-1.35,3.1,3.1,0,0,1,4.105,1.527l.064.136,2.053,4.486,6.217-9.941a1.924,1.924,0,0,1,2.407-.735,1.921,1.921,0,0,1,.976,2.533l-7.233,16.308a3.068,3.068,0,0,1-1.538,1.54,3.07,3.07,0,0,1-4.071-1.511h0l-.092-.2-2.136-4.675-7.454,11.121a2.26,2.26,0,0,1-1.872.992A2.256,2.256,0,0,1-1052.355,2166.819Zm-125.684-53.342a2.451,2.451,0,0,1-.635-3.216l7.506-12.413-5.568.042-.239,0,0,0a3.326,3.326,0,0,1-3.349-3.3,3.329,3.329,0,0,1,.808-2.215l12.7-14.568v0a2.08,2.08,0,0,1,2.935-.2,2.081,2.081,0,0,1,.379,2.7l-6.914,10.659,5.345-.039.164,0a3.36,3.36,0,0,1,3.38,3.335,3.354,3.354,0,0,1-.668,2.027l-12.437,16.7a2.437,2.437,0,0,1-1.955.976A2.435,2.435,0,0,1-1178.039,2113.477Z" transform="translate(1315.063 -2077.087)" fill="url(#linear-gradient)"/>
</svg>
