<svg xmlns="http://www.w3.org/2000/svg" xmlns:xlink="http://www.w3.org/1999/xlink" width="374.472" height="815.82" viewBox="0 0 374.472 815.82">
  <defs>
    <clipPath id="clip-path">
      <rect width="374.472" height="815.82" fill="none"/>
    </clipPath>
  </defs>
  <g id="flash" opacity="0.5" clip-path="url(#clip-path)">
    <g transform="translate(3874.956 -942.242)">
      <path id="Path_16946-6" data-name="Path 16946-6" d="M7.218,6.376A1.305,1.305,0,0,0,5.717,5.3h0l-.062.01L3.6,5.651,5.611,1.138A.809.809,0,0,0,4.186.38h0L.194,6.748A1.3,1.3,0,0,0,1.506,8.713h0L1.6,8.7l2.136-.355L1.606,13.567a.949.949,0,0,0,1.718.8L7.085,7.2A1.3,1.3,0,0,0,7.218,6.376Z" transform="translate(-3831.629 942.242) rotate(9)" fill="#07e28e"/>
      <path id="Path_16946-6-2" data-name="Path 16946-6" d="M7.218,6.376A1.305,1.305,0,0,0,5.717,5.3h0l-.062.01L3.6,5.651,5.611,1.138A.809.809,0,0,0,4.186.38h0L.194,6.748A1.3,1.3,0,0,0,1.506,8.713h0L1.6,8.7l2.136-.355L1.606,13.567a.949.949,0,0,0,1.718.8L7.085,7.2A1.3,1.3,0,0,0,7.218,6.376Z" transform="translate(-3872.629 989.242) rotate(9)" fill="#07e28e"/>
      <path id="Path_16946-6-3" data-name="Path 16946-6" d="M7.218,6.376A1.305,1.305,0,0,0,5.717,5.3h0l-.062.01L3.6,5.651,5.611,1.138A.809.809,0,0,0,4.186.38h0L.194,6.748A1.3,1.3,0,0,0,1.506,8.713h0L1.6,8.7l2.136-.355L1.606,13.567a.949.949,0,0,0,1.718.8L7.085,7.2A1.3,1.3,0,0,0,7.218,6.376Z" transform="translate(-3748.629 942.242) rotate(9)" fill="#07e28e"/>
      <path id="Path_16946-6-4" data-name="Path 16946-6" d="M7.218,6.376A1.305,1.305,0,0,0,5.717,5.3h0l-.062.01L3.6,5.651,5.611,1.138A.809.809,0,0,0,4.186.38h0L.194,6.748A1.3,1.3,0,0,0,1.506,8.713h0L1.6,8.7l2.136-.355L1.606,13.567a.949.949,0,0,0,1.718.8L7.085,7.2A1.3,1.3,0,0,0,7.218,6.376Z" transform="translate(-3789.629 989.242) rotate(9)" fill="#07e28e"/>
    </g>
    <g transform="translate(4028.956 -942.242)">
      <path id="Path_16946-6-5" data-name="Path 16946-6" d="M7.218,6.376A1.305,1.305,0,0,0,5.717,5.3h0l-.062.01L3.6,5.651,5.611,1.138A.809.809,0,0,0,4.186.38h0L.194,6.748A1.3,1.3,0,0,0,1.506,8.713h0L1.6,8.7l2.136-.355L1.606,13.567a.949.949,0,0,0,1.718.8L7.085,7.2A1.3,1.3,0,0,0,7.218,6.376Z" transform="translate(-3831.629 942.242) rotate(9)" fill="#07e28e"/>
      <path id="Path_16946-6-6" data-name="Path 16946-6" d="M7.218,6.376A1.305,1.305,0,0,0,5.717,5.3h0l-.062.01L3.6,5.651,5.611,1.138A.809.809,0,0,0,4.186.38h0L.194,6.748A1.3,1.3,0,0,0,1.506,8.713h0L1.6,8.7l2.136-.355L1.606,13.567a.949.949,0,0,0,1.718.8L7.085,7.2A1.3,1.3,0,0,0,7.218,6.376Z" transform="translate(-3872.629 989.242) rotate(9)" fill="#07e28e"/>
      <path id="Path_16946-6-7" data-name="Path 16946-6" d="M7.218,6.376A1.305,1.305,0,0,0,5.717,5.3h0l-.062.01L3.6,5.651,5.611,1.138A.809.809,0,0,0,4.186.38h0L.194,6.748A1.3,1.3,0,0,0,1.506,8.713h0L1.6,8.7l2.136-.355L1.606,13.567a.949.949,0,0,0,1.718.8L7.085,7.2A1.3,1.3,0,0,0,7.218,6.376Z" transform="translate(-3748.629 942.242) rotate(9)" fill="#07e28e"/>
      <path id="Path_16946-6-8" data-name="Path 16946-6" d="M7.218,6.376A1.305,1.305,0,0,0,5.717,5.3h0l-.062.01L3.6,5.651,5.611,1.138A.809.809,0,0,0,4.186.38h0L.194,6.748A1.3,1.3,0,0,0,1.506,8.713h0L1.6,8.7l2.136-.355L1.606,13.567a.949.949,0,0,0,1.718.8L7.085,7.2A1.3,1.3,0,0,0,7.218,6.376Z" transform="translate(-3789.629 989.242) rotate(9)" fill="#07e28e"/>
    </g>
    <g transform="translate(4182.956 -942.242)">
      <path id="Path_16946-6-9" data-name="Path 16946-6" d="M7.218,6.376A1.305,1.305,0,0,0,5.717,5.3h0l-.062.01L3.6,5.651,5.611,1.138A.809.809,0,0,0,4.186.38h0L.194,6.748A1.3,1.3,0,0,0,1.506,8.713h0L1.6,8.7l2.136-.355L1.606,13.567a.949.949,0,0,0,1.718.8L7.085,7.2A1.3,1.3,0,0,0,7.218,6.376Z" transform="translate(-3831.629 942.242) rotate(9)" fill="#07e28e"/>
      <path id="Path_16946-6-10" data-name="Path 16946-6" d="M7.218,6.376A1.305,1.305,0,0,0,5.717,5.3h0l-.062.01L3.6,5.651,5.611,1.138A.809.809,0,0,0,4.186.38h0L.194,6.748A1.3,1.3,0,0,0,1.506,8.713h0L1.6,8.7l2.136-.355L1.606,13.567a.949.949,0,0,0,1.718.8L7.085,7.2A1.3,1.3,0,0,0,7.218,6.376Z" transform="translate(-3872.629 989.242) rotate(9)" fill="#07e28e"/>
      <path id="Path_16946-6-11" data-name="Path 16946-6" d="M7.218,6.376A1.305,1.305,0,0,0,5.717,5.3h0l-.062.01L3.6,5.651,5.611,1.138A.809.809,0,0,0,4.186.38h0L.194,6.748A1.3,1.3,0,0,0,1.506,8.713h0L1.6,8.7l2.136-.355L1.606,13.567a.949.949,0,0,0,1.718.8L7.085,7.2A1.3,1.3,0,0,0,7.218,6.376Z" transform="translate(-3748.629 942.242) rotate(9)" fill="#07e28e"/>
      <path id="Path_16946-6-12" data-name="Path 16946-6" d="M7.218,6.376A1.305,1.305,0,0,0,5.717,5.3h0l-.062.01L3.6,5.651,5.611,1.138A.809.809,0,0,0,4.186.38h0L.194,6.748A1.3,1.3,0,0,0,1.506,8.713h0L1.6,8.7l2.136-.355L1.606,13.567a.949.949,0,0,0,1.718.8L7.085,7.2A1.3,1.3,0,0,0,7.218,6.376Z" transform="translate(-3789.629 989.242) rotate(9)" fill="#07e28e"/>
    </g>
    <g transform="translate(3874.956 -859.242)">
      <path id="Path_16946-6-13" data-name="Path 16946-6" d="M7.218,6.376A1.305,1.305,0,0,0,5.717,5.3h0l-.062.01L3.6,5.651,5.611,1.138A.809.809,0,0,0,4.186.38h0L.194,6.748A1.3,1.3,0,0,0,1.506,8.713h0L1.6,8.7l2.136-.355L1.606,13.567a.949.949,0,0,0,1.718.8L7.085,7.2A1.3,1.3,0,0,0,7.218,6.376Z" transform="translate(-3831.629 942.242) rotate(9)" fill="#07e28e"/>
      <path id="Path_16946-6-14" data-name="Path 16946-6" d="M7.218,6.376A1.305,1.305,0,0,0,5.717,5.3h0l-.062.01L3.6,5.651,5.611,1.138A.809.809,0,0,0,4.186.38h0L.194,6.748A1.3,1.3,0,0,0,1.506,8.713h0L1.6,8.7l2.136-.355L1.606,13.567a.949.949,0,0,0,1.718.8L7.085,7.2A1.3,1.3,0,0,0,7.218,6.376Z" transform="translate(-3872.629 989.242) rotate(9)" fill="#07e28e"/>
      <path id="Path_16946-6-15" data-name="Path 16946-6" d="M7.218,6.376A1.305,1.305,0,0,0,5.717,5.3h0l-.062.01L3.6,5.651,5.611,1.138A.809.809,0,0,0,4.186.38h0L.194,6.748A1.3,1.3,0,0,0,1.506,8.713h0L1.6,8.7l2.136-.355L1.606,13.567a.949.949,0,0,0,1.718.8L7.085,7.2A1.3,1.3,0,0,0,7.218,6.376Z" transform="translate(-3748.629 942.242) rotate(9)" fill="#07e28e"/>
      <path id="Path_16946-6-16" data-name="Path 16946-6" d="M7.218,6.376A1.305,1.305,0,0,0,5.717,5.3h0l-.062.01L3.6,5.651,5.611,1.138A.809.809,0,0,0,4.186.38h0L.194,6.748A1.3,1.3,0,0,0,1.506,8.713h0L1.6,8.7l2.136-.355L1.606,13.567a.949.949,0,0,0,1.718.8L7.085,7.2A1.3,1.3,0,0,0,7.218,6.376Z" transform="translate(-3789.629 989.242) rotate(9)" fill="#07e28e"/>
    </g>
    <g transform="translate(4028.956 -859.242)">
      <path id="Path_16946-6-17" data-name="Path 16946-6" d="M7.218,6.376A1.305,1.305,0,0,0,5.717,5.3h0l-.062.01L3.6,5.651,5.611,1.138A.809.809,0,0,0,4.186.38h0L.194,6.748A1.3,1.3,0,0,0,1.506,8.713h0L1.6,8.7l2.136-.355L1.606,13.567a.949.949,0,0,0,1.718.8L7.085,7.2A1.3,1.3,0,0,0,7.218,6.376Z" transform="translate(-3831.629 942.242) rotate(9)" fill="#07e28e"/>
      <path id="Path_16946-6-18" data-name="Path 16946-6" d="M7.218,6.376A1.305,1.305,0,0,0,5.717,5.3h0l-.062.01L3.6,5.651,5.611,1.138A.809.809,0,0,0,4.186.38h0L.194,6.748A1.3,1.3,0,0,0,1.506,8.713h0L1.6,8.7l2.136-.355L1.606,13.567a.949.949,0,0,0,1.718.8L7.085,7.2A1.3,1.3,0,0,0,7.218,6.376Z" transform="translate(-3872.629 989.242) rotate(9)" fill="#07e28e"/>
      <path id="Path_16946-6-19" data-name="Path 16946-6" d="M7.218,6.376A1.305,1.305,0,0,0,5.717,5.3h0l-.062.01L3.6,5.651,5.611,1.138A.809.809,0,0,0,4.186.38h0L.194,6.748A1.3,1.3,0,0,0,1.506,8.713h0L1.6,8.7l2.136-.355L1.606,13.567a.949.949,0,0,0,1.718.8L7.085,7.2A1.3,1.3,0,0,0,7.218,6.376Z" transform="translate(-3748.629 942.242) rotate(9)" fill="#07e28e"/>
      <path id="Path_16946-6-20" data-name="Path 16946-6" d="M7.218,6.376A1.305,1.305,0,0,0,5.717,5.3h0l-.062.01L3.6,5.651,5.611,1.138A.809.809,0,0,0,4.186.38h0L.194,6.748A1.3,1.3,0,0,0,1.506,8.713h0L1.6,8.7l2.136-.355L1.606,13.567a.949.949,0,0,0,1.718.8L7.085,7.2A1.3,1.3,0,0,0,7.218,6.376Z" transform="translate(-3789.629 989.242) rotate(9)" fill="#07e28e"/>
    </g>
    <g transform="translate(4182.956 -859.242)">
      <path id="Path_16946-6-21" data-name="Path 16946-6" d="M7.218,6.376A1.305,1.305,0,0,0,5.717,5.3h0l-.062.01L3.6,5.651,5.611,1.138A.809.809,0,0,0,4.186.38h0L.194,6.748A1.3,1.3,0,0,0,1.506,8.713h0L1.6,8.7l2.136-.355L1.606,13.567a.949.949,0,0,0,1.718.8L7.085,7.2A1.3,1.3,0,0,0,7.218,6.376Z" transform="translate(-3831.629 942.242) rotate(9)" fill="#07e28e"/>
      <path id="Path_16946-6-22" data-name="Path 16946-6" d="M7.218,6.376A1.305,1.305,0,0,0,5.717,5.3h0l-.062.01L3.6,5.651,5.611,1.138A.809.809,0,0,0,4.186.38h0L.194,6.748A1.3,1.3,0,0,0,1.506,8.713h0L1.6,8.7l2.136-.355L1.606,13.567a.949.949,0,0,0,1.718.8L7.085,7.2A1.3,1.3,0,0,0,7.218,6.376Z" transform="translate(-3872.629 989.242) rotate(9)" fill="#07e28e"/>
      <path id="Path_16946-6-23" data-name="Path 16946-6" d="M7.218,6.376A1.305,1.305,0,0,0,5.717,5.3h0l-.062.01L3.6,5.651,5.611,1.138A.809.809,0,0,0,4.186.38h0L.194,6.748A1.3,1.3,0,0,0,1.506,8.713h0L1.6,8.7l2.136-.355L1.606,13.567a.949.949,0,0,0,1.718.8L7.085,7.2A1.3,1.3,0,0,0,7.218,6.376Z" transform="translate(-3748.629 942.242) rotate(9)" fill="#07e28e"/>
      <path id="Path_16946-6-24" data-name="Path 16946-6" d="M7.218,6.376A1.305,1.305,0,0,0,5.717,5.3h0l-.062.01L3.6,5.651,5.611,1.138A.809.809,0,0,0,4.186.38h0L.194,6.748A1.3,1.3,0,0,0,1.506,8.713h0L1.6,8.7l2.136-.355L1.606,13.567a.949.949,0,0,0,1.718.8L7.085,7.2A1.3,1.3,0,0,0,7.218,6.376Z" transform="translate(-3789.629 989.242) rotate(9)" fill="#07e28e"/>
    </g>
    <g transform="translate(3874.956 -776.242)">
      <path id="Path_16946-6-25" data-name="Path 16946-6" d="M7.218,6.376A1.305,1.305,0,0,0,5.717,5.3h0l-.062.01L3.6,5.651,5.611,1.138A.809.809,0,0,0,4.186.38h0L.194,6.748A1.3,1.3,0,0,0,1.506,8.713h0L1.6,8.7l2.136-.355L1.606,13.567a.949.949,0,0,0,1.718.8L7.085,7.2A1.3,1.3,0,0,0,7.218,6.376Z" transform="translate(-3831.629 942.242) rotate(9)" fill="#07e28e"/>
      <path id="Path_16946-6-26" data-name="Path 16946-6" d="M7.218,6.376A1.305,1.305,0,0,0,5.717,5.3h0l-.062.01L3.6,5.651,5.611,1.138A.809.809,0,0,0,4.186.38h0L.194,6.748A1.3,1.3,0,0,0,1.506,8.713h0L1.6,8.7l2.136-.355L1.606,13.567a.949.949,0,0,0,1.718.8L7.085,7.2A1.3,1.3,0,0,0,7.218,6.376Z" transform="translate(-3872.629 989.242) rotate(9)" fill="#07e28e"/>
      <path id="Path_16946-6-27" data-name="Path 16946-6" d="M7.218,6.376A1.305,1.305,0,0,0,5.717,5.3h0l-.062.01L3.6,5.651,5.611,1.138A.809.809,0,0,0,4.186.38h0L.194,6.748A1.3,1.3,0,0,0,1.506,8.713h0L1.6,8.7l2.136-.355L1.606,13.567a.949.949,0,0,0,1.718.8L7.085,7.2A1.3,1.3,0,0,0,7.218,6.376Z" transform="translate(-3748.629 942.242) rotate(9)" fill="#07e28e"/>
      <path id="Path_16946-6-28" data-name="Path 16946-6" d="M7.218,6.376A1.305,1.305,0,0,0,5.717,5.3h0l-.062.01L3.6,5.651,5.611,1.138A.809.809,0,0,0,4.186.38h0L.194,6.748A1.3,1.3,0,0,0,1.506,8.713h0L1.6,8.7l2.136-.355L1.606,13.567a.949.949,0,0,0,1.718.8L7.085,7.2A1.3,1.3,0,0,0,7.218,6.376Z" transform="translate(-3789.629 989.242) rotate(9)" fill="#07e28e"/>
    </g>
    <g transform="translate(4028.956 -776.242)">
      <path id="Path_16946-6-29" data-name="Path 16946-6" d="M7.218,6.376A1.305,1.305,0,0,0,5.717,5.3h0l-.062.01L3.6,5.651,5.611,1.138A.809.809,0,0,0,4.186.38h0L.194,6.748A1.3,1.3,0,0,0,1.506,8.713h0L1.6,8.7l2.136-.355L1.606,13.567a.949.949,0,0,0,1.718.8L7.085,7.2A1.3,1.3,0,0,0,7.218,6.376Z" transform="translate(-3831.629 942.242) rotate(9)" fill="#07e28e"/>
      <path id="Path_16946-6-30" data-name="Path 16946-6" d="M7.218,6.376A1.305,1.305,0,0,0,5.717,5.3h0l-.062.01L3.6,5.651,5.611,1.138A.809.809,0,0,0,4.186.38h0L.194,6.748A1.3,1.3,0,0,0,1.506,8.713h0L1.6,8.7l2.136-.355L1.606,13.567a.949.949,0,0,0,1.718.8L7.085,7.2A1.3,1.3,0,0,0,7.218,6.376Z" transform="translate(-3872.629 989.242) rotate(9)" fill="#07e28e"/>
      <path id="Path_16946-6-31" data-name="Path 16946-6" d="M7.218,6.376A1.305,1.305,0,0,0,5.717,5.3h0l-.062.01L3.6,5.651,5.611,1.138A.809.809,0,0,0,4.186.38h0L.194,6.748A1.3,1.3,0,0,0,1.506,8.713h0L1.6,8.7l2.136-.355L1.606,13.567a.949.949,0,0,0,1.718.8L7.085,7.2A1.3,1.3,0,0,0,7.218,6.376Z" transform="translate(-3748.629 942.242) rotate(9)" fill="#07e28e"/>
      <path id="Path_16946-6-32" data-name="Path 16946-6" d="M7.218,6.376A1.305,1.305,0,0,0,5.717,5.3h0l-.062.01L3.6,5.651,5.611,1.138A.809.809,0,0,0,4.186.38h0L.194,6.748A1.3,1.3,0,0,0,1.506,8.713h0L1.6,8.7l2.136-.355L1.606,13.567a.949.949,0,0,0,1.718.8L7.085,7.2A1.3,1.3,0,0,0,7.218,6.376Z" transform="translate(-3789.629 989.242) rotate(9)" fill="#07e28e"/>
    </g>
    <g transform="translate(4182.956 -776.242)">
      <path id="Path_16946-6-33" data-name="Path 16946-6" d="M7.218,6.376A1.305,1.305,0,0,0,5.717,5.3h0l-.062.01L3.6,5.651,5.611,1.138A.809.809,0,0,0,4.186.38h0L.194,6.748A1.3,1.3,0,0,0,1.506,8.713h0L1.6,8.7l2.136-.355L1.606,13.567a.949.949,0,0,0,1.718.8L7.085,7.2A1.3,1.3,0,0,0,7.218,6.376Z" transform="translate(-3831.629 942.242) rotate(9)" fill="#07e28e"/>
      <path id="Path_16946-6-34" data-name="Path 16946-6" d="M7.218,6.376A1.305,1.305,0,0,0,5.717,5.3h0l-.062.01L3.6,5.651,5.611,1.138A.809.809,0,0,0,4.186.38h0L.194,6.748A1.3,1.3,0,0,0,1.506,8.713h0L1.6,8.7l2.136-.355L1.606,13.567a.949.949,0,0,0,1.718.8L7.085,7.2A1.3,1.3,0,0,0,7.218,6.376Z" transform="translate(-3872.629 989.242) rotate(9)" fill="#07e28e"/>
      <path id="Path_16946-6-35" data-name="Path 16946-6" d="M7.218,6.376A1.305,1.305,0,0,0,5.717,5.3h0l-.062.01L3.6,5.651,5.611,1.138A.809.809,0,0,0,4.186.38h0L.194,6.748A1.3,1.3,0,0,0,1.506,8.713h0L1.6,8.7l2.136-.355L1.606,13.567a.949.949,0,0,0,1.718.8L7.085,7.2A1.3,1.3,0,0,0,7.218,6.376Z" transform="translate(-3748.629 942.242) rotate(9)" fill="#07e28e"/>
      <path id="Path_16946-6-36" data-name="Path 16946-6" d="M7.218,6.376A1.305,1.305,0,0,0,5.717,5.3h0l-.062.01L3.6,5.651,5.611,1.138A.809.809,0,0,0,4.186.38h0L.194,6.748A1.3,1.3,0,0,0,1.506,8.713h0L1.6,8.7l2.136-.355L1.606,13.567a.949.949,0,0,0,1.718.8L7.085,7.2A1.3,1.3,0,0,0,7.218,6.376Z" transform="translate(-3789.629 989.242) rotate(9)" fill="#07e28e"/>
    </g>
    <g transform="translate(3874.956 -693.242)">
      <path id="Path_16946-6-37" data-name="Path 16946-6" d="M7.218,6.376A1.305,1.305,0,0,0,5.717,5.3h0l-.062.01L3.6,5.651,5.611,1.138A.809.809,0,0,0,4.186.38h0L.194,6.748A1.3,1.3,0,0,0,1.506,8.713h0L1.6,8.7l2.136-.355L1.606,13.567a.949.949,0,0,0,1.718.8L7.085,7.2A1.3,1.3,0,0,0,7.218,6.376Z" transform="translate(-3831.629 942.242) rotate(9)" fill="#07e28e"/>
      <path id="Path_16946-6-38" data-name="Path 16946-6" d="M7.218,6.376A1.305,1.305,0,0,0,5.717,5.3h0l-.062.01L3.6,5.651,5.611,1.138A.809.809,0,0,0,4.186.38h0L.194,6.748A1.3,1.3,0,0,0,1.506,8.713h0L1.6,8.7l2.136-.355L1.606,13.567a.949.949,0,0,0,1.718.8L7.085,7.2A1.3,1.3,0,0,0,7.218,6.376Z" transform="translate(-3872.629 989.242) rotate(9)" fill="#07e28e"/>
      <path id="Path_16946-6-39" data-name="Path 16946-6" d="M7.218,6.376A1.305,1.305,0,0,0,5.717,5.3h0l-.062.01L3.6,5.651,5.611,1.138A.809.809,0,0,0,4.186.38h0L.194,6.748A1.3,1.3,0,0,0,1.506,8.713h0L1.6,8.7l2.136-.355L1.606,13.567a.949.949,0,0,0,1.718.8L7.085,7.2A1.3,1.3,0,0,0,7.218,6.376Z" transform="translate(-3748.629 942.242) rotate(9)" fill="#07e28e"/>
      <path id="Path_16946-6-40" data-name="Path 16946-6" d="M7.218,6.376A1.305,1.305,0,0,0,5.717,5.3h0l-.062.01L3.6,5.651,5.611,1.138A.809.809,0,0,0,4.186.38h0L.194,6.748A1.3,1.3,0,0,0,1.506,8.713h0L1.6,8.7l2.136-.355L1.606,13.567a.949.949,0,0,0,1.718.8L7.085,7.2A1.3,1.3,0,0,0,7.218,6.376Z" transform="translate(-3789.629 989.242) rotate(9)" fill="#07e28e"/>
    </g>
    <g transform="translate(4028.956 -693.242)">
      <path id="Path_16946-6-41" data-name="Path 16946-6" d="M7.218,6.376A1.305,1.305,0,0,0,5.717,5.3h0l-.062.01L3.6,5.651,5.611,1.138A.809.809,0,0,0,4.186.38h0L.194,6.748A1.3,1.3,0,0,0,1.506,8.713h0L1.6,8.7l2.136-.355L1.606,13.567a.949.949,0,0,0,1.718.8L7.085,7.2A1.3,1.3,0,0,0,7.218,6.376Z" transform="translate(-3831.629 942.242) rotate(9)" fill="#07e28e"/>
      <path id="Path_16946-6-42" data-name="Path 16946-6" d="M7.218,6.376A1.305,1.305,0,0,0,5.717,5.3h0l-.062.01L3.6,5.651,5.611,1.138A.809.809,0,0,0,4.186.38h0L.194,6.748A1.3,1.3,0,0,0,1.506,8.713h0L1.6,8.7l2.136-.355L1.606,13.567a.949.949,0,0,0,1.718.8L7.085,7.2A1.3,1.3,0,0,0,7.218,6.376Z" transform="translate(-3872.629 989.242) rotate(9)" fill="#07e28e"/>
      <path id="Path_16946-6-43" data-name="Path 16946-6" d="M7.218,6.376A1.305,1.305,0,0,0,5.717,5.3h0l-.062.01L3.6,5.651,5.611,1.138A.809.809,0,0,0,4.186.38h0L.194,6.748A1.3,1.3,0,0,0,1.506,8.713h0L1.6,8.7l2.136-.355L1.606,13.567a.949.949,0,0,0,1.718.8L7.085,7.2A1.3,1.3,0,0,0,7.218,6.376Z" transform="translate(-3748.629 942.242) rotate(9)" fill="#07e28e"/>
      <path id="Path_16946-6-44" data-name="Path 16946-6" d="M7.218,6.376A1.305,1.305,0,0,0,5.717,5.3h0l-.062.01L3.6,5.651,5.611,1.138A.809.809,0,0,0,4.186.38h0L.194,6.748A1.3,1.3,0,0,0,1.506,8.713h0L1.6,8.7l2.136-.355L1.606,13.567a.949.949,0,0,0,1.718.8L7.085,7.2A1.3,1.3,0,0,0,7.218,6.376Z" transform="translate(-3789.629 989.242) rotate(9)" fill="#07e28e"/>
    </g>
    <g transform="translate(4182.956 -693.242)">
      <path id="Path_16946-6-45" data-name="Path 16946-6" d="M7.218,6.376A1.305,1.305,0,0,0,5.717,5.3h0l-.062.01L3.6,5.651,5.611,1.138A.809.809,0,0,0,4.186.38h0L.194,6.748A1.3,1.3,0,0,0,1.506,8.713h0L1.6,8.7l2.136-.355L1.606,13.567a.949.949,0,0,0,1.718.8L7.085,7.2A1.3,1.3,0,0,0,7.218,6.376Z" transform="translate(-3831.629 942.242) rotate(9)" fill="#07e28e"/>
      <path id="Path_16946-6-46" data-name="Path 16946-6" d="M7.218,6.376A1.305,1.305,0,0,0,5.717,5.3h0l-.062.01L3.6,5.651,5.611,1.138A.809.809,0,0,0,4.186.38h0L.194,6.748A1.3,1.3,0,0,0,1.506,8.713h0L1.6,8.7l2.136-.355L1.606,13.567a.949.949,0,0,0,1.718.8L7.085,7.2A1.3,1.3,0,0,0,7.218,6.376Z" transform="translate(-3872.629 989.242) rotate(9)" fill="#07e28e"/>
      <path id="Path_16946-6-47" data-name="Path 16946-6" d="M7.218,6.376A1.305,1.305,0,0,0,5.717,5.3h0l-.062.01L3.6,5.651,5.611,1.138A.809.809,0,0,0,4.186.38h0L.194,6.748A1.3,1.3,0,0,0,1.506,8.713h0L1.6,8.7l2.136-.355L1.606,13.567a.949.949,0,0,0,1.718.8L7.085,7.2A1.3,1.3,0,0,0,7.218,6.376Z" transform="translate(-3748.629 942.242) rotate(9)" fill="#07e28e"/>
      <path id="Path_16946-6-48" data-name="Path 16946-6" d="M7.218,6.376A1.305,1.305,0,0,0,5.717,5.3h0l-.062.01L3.6,5.651,5.611,1.138A.809.809,0,0,0,4.186.38h0L.194,6.748A1.3,1.3,0,0,0,1.506,8.713h0L1.6,8.7l2.136-.355L1.606,13.567a.949.949,0,0,0,1.718.8L7.085,7.2A1.3,1.3,0,0,0,7.218,6.376Z" transform="translate(-3789.629 989.242) rotate(9)" fill="#07e28e"/>
    </g>
    <g transform="translate(3874.956 -610.242)">
      <path id="Path_16946-6-49" data-name="Path 16946-6" d="M7.218,6.376A1.305,1.305,0,0,0,5.717,5.3h0l-.062.01L3.6,5.651,5.611,1.138A.809.809,0,0,0,4.186.38h0L.194,6.748A1.3,1.3,0,0,0,1.506,8.713h0L1.6,8.7l2.136-.355L1.606,13.567a.949.949,0,0,0,1.718.8L7.085,7.2A1.3,1.3,0,0,0,7.218,6.376Z" transform="translate(-3831.629 942.242) rotate(9)" fill="#07e28e"/>
      <path id="Path_16946-6-50" data-name="Path 16946-6" d="M7.218,6.376A1.305,1.305,0,0,0,5.717,5.3h0l-.062.01L3.6,5.651,5.611,1.138A.809.809,0,0,0,4.186.38h0L.194,6.748A1.3,1.3,0,0,0,1.506,8.713h0L1.6,8.7l2.136-.355L1.606,13.567a.949.949,0,0,0,1.718.8L7.085,7.2A1.3,1.3,0,0,0,7.218,6.376Z" transform="translate(-3872.629 989.242) rotate(9)" fill="#07e28e"/>
      <path id="Path_16946-6-51" data-name="Path 16946-6" d="M7.218,6.376A1.305,1.305,0,0,0,5.717,5.3h0l-.062.01L3.6,5.651,5.611,1.138A.809.809,0,0,0,4.186.38h0L.194,6.748A1.3,1.3,0,0,0,1.506,8.713h0L1.6,8.7l2.136-.355L1.606,13.567a.949.949,0,0,0,1.718.8L7.085,7.2A1.3,1.3,0,0,0,7.218,6.376Z" transform="translate(-3748.629 942.242) rotate(9)" fill="#07e28e"/>
      <path id="Path_16946-6-52" data-name="Path 16946-6" d="M7.218,6.376A1.305,1.305,0,0,0,5.717,5.3h0l-.062.01L3.6,5.651,5.611,1.138A.809.809,0,0,0,4.186.38h0L.194,6.748A1.3,1.3,0,0,0,1.506,8.713h0L1.6,8.7l2.136-.355L1.606,13.567a.949.949,0,0,0,1.718.8L7.085,7.2A1.3,1.3,0,0,0,7.218,6.376Z" transform="translate(-3789.629 989.242) rotate(9)" fill="#07e28e"/>
    </g>
    <g transform="translate(4028.956 -610.242)">
      <path id="Path_16946-6-53" data-name="Path 16946-6" d="M7.218,6.376A1.305,1.305,0,0,0,5.717,5.3h0l-.062.01L3.6,5.651,5.611,1.138A.809.809,0,0,0,4.186.38h0L.194,6.748A1.3,1.3,0,0,0,1.506,8.713h0L1.6,8.7l2.136-.355L1.606,13.567a.949.949,0,0,0,1.718.8L7.085,7.2A1.3,1.3,0,0,0,7.218,6.376Z" transform="translate(-3831.629 942.242) rotate(9)" fill="#07e28e"/>
      <path id="Path_16946-6-54" data-name="Path 16946-6" d="M7.218,6.376A1.305,1.305,0,0,0,5.717,5.3h0l-.062.01L3.6,5.651,5.611,1.138A.809.809,0,0,0,4.186.38h0L.194,6.748A1.3,1.3,0,0,0,1.506,8.713h0L1.6,8.7l2.136-.355L1.606,13.567a.949.949,0,0,0,1.718.8L7.085,7.2A1.3,1.3,0,0,0,7.218,6.376Z" transform="translate(-3872.629 989.242) rotate(9)" fill="#07e28e"/>
      <path id="Path_16946-6-55" data-name="Path 16946-6" d="M7.218,6.376A1.305,1.305,0,0,0,5.717,5.3h0l-.062.01L3.6,5.651,5.611,1.138A.809.809,0,0,0,4.186.38h0L.194,6.748A1.3,1.3,0,0,0,1.506,8.713h0L1.6,8.7l2.136-.355L1.606,13.567a.949.949,0,0,0,1.718.8L7.085,7.2A1.3,1.3,0,0,0,7.218,6.376Z" transform="translate(-3748.629 942.242) rotate(9)" fill="#07e28e"/>
      <path id="Path_16946-6-56" data-name="Path 16946-6" d="M7.218,6.376A1.305,1.305,0,0,0,5.717,5.3h0l-.062.01L3.6,5.651,5.611,1.138A.809.809,0,0,0,4.186.38h0L.194,6.748A1.3,1.3,0,0,0,1.506,8.713h0L1.6,8.7l2.136-.355L1.606,13.567a.949.949,0,0,0,1.718.8L7.085,7.2A1.3,1.3,0,0,0,7.218,6.376Z" transform="translate(-3789.629 989.242) rotate(9)" fill="#07e28e"/>
    </g>
    <g transform="translate(4182.956 -610.242)">
      <path id="Path_16946-6-57" data-name="Path 16946-6" d="M7.218,6.376A1.305,1.305,0,0,0,5.717,5.3h0l-.062.01L3.6,5.651,5.611,1.138A.809.809,0,0,0,4.186.38h0L.194,6.748A1.3,1.3,0,0,0,1.506,8.713h0L1.6,8.7l2.136-.355L1.606,13.567a.949.949,0,0,0,1.718.8L7.085,7.2A1.3,1.3,0,0,0,7.218,6.376Z" transform="translate(-3831.629 942.242) rotate(9)" fill="#07e28e"/>
      <path id="Path_16946-6-58" data-name="Path 16946-6" d="M7.218,6.376A1.305,1.305,0,0,0,5.717,5.3h0l-.062.01L3.6,5.651,5.611,1.138A.809.809,0,0,0,4.186.38h0L.194,6.748A1.3,1.3,0,0,0,1.506,8.713h0L1.6,8.7l2.136-.355L1.606,13.567a.949.949,0,0,0,1.718.8L7.085,7.2A1.3,1.3,0,0,0,7.218,6.376Z" transform="translate(-3872.629 989.242) rotate(9)" fill="#07e28e"/>
      <path id="Path_16946-6-59" data-name="Path 16946-6" d="M7.218,6.376A1.305,1.305,0,0,0,5.717,5.3h0l-.062.01L3.6,5.651,5.611,1.138A.809.809,0,0,0,4.186.38h0L.194,6.748A1.3,1.3,0,0,0,1.506,8.713h0L1.6,8.7l2.136-.355L1.606,13.567a.949.949,0,0,0,1.718.8L7.085,7.2A1.3,1.3,0,0,0,7.218,6.376Z" transform="translate(-3748.629 942.242) rotate(9)" fill="#07e28e"/>
      <path id="Path_16946-6-60" data-name="Path 16946-6" d="M7.218,6.376A1.305,1.305,0,0,0,5.717,5.3h0l-.062.01L3.6,5.651,5.611,1.138A.809.809,0,0,0,4.186.38h0L.194,6.748A1.3,1.3,0,0,0,1.506,8.713h0L1.6,8.7l2.136-.355L1.606,13.567a.949.949,0,0,0,1.718.8L7.085,7.2A1.3,1.3,0,0,0,7.218,6.376Z" transform="translate(-3789.629 989.242) rotate(9)" fill="#07e28e"/>
    </g>
    <g transform="translate(3874.956 -527.242)">
      <path id="Path_16946-6-61" data-name="Path 16946-6" d="M7.218,6.376A1.305,1.305,0,0,0,5.717,5.3h0l-.062.01L3.6,5.651,5.611,1.138A.809.809,0,0,0,4.186.38h0L.194,6.748A1.3,1.3,0,0,0,1.506,8.713h0L1.6,8.7l2.136-.355L1.606,13.567a.949.949,0,0,0,1.718.8L7.085,7.2A1.3,1.3,0,0,0,7.218,6.376Z" transform="translate(-3831.629 942.242) rotate(9)" fill="#07e28e"/>
      <path id="Path_16946-6-62" data-name="Path 16946-6" d="M7.218,6.376A1.305,1.305,0,0,0,5.717,5.3h0l-.062.01L3.6,5.651,5.611,1.138A.809.809,0,0,0,4.186.38h0L.194,6.748A1.3,1.3,0,0,0,1.506,8.713h0L1.6,8.7l2.136-.355L1.606,13.567a.949.949,0,0,0,1.718.8L7.085,7.2A1.3,1.3,0,0,0,7.218,6.376Z" transform="translate(-3872.629 989.242) rotate(9)" fill="#07e28e"/>
      <path id="Path_16946-6-63" data-name="Path 16946-6" d="M7.218,6.376A1.305,1.305,0,0,0,5.717,5.3h0l-.062.01L3.6,5.651,5.611,1.138A.809.809,0,0,0,4.186.38h0L.194,6.748A1.3,1.3,0,0,0,1.506,8.713h0L1.6,8.7l2.136-.355L1.606,13.567a.949.949,0,0,0,1.718.8L7.085,7.2A1.3,1.3,0,0,0,7.218,6.376Z" transform="translate(-3748.629 942.242) rotate(9)" fill="#07e28e"/>
      <path id="Path_16946-6-64" data-name="Path 16946-6" d="M7.218,6.376A1.305,1.305,0,0,0,5.717,5.3h0l-.062.01L3.6,5.651,5.611,1.138A.809.809,0,0,0,4.186.38h0L.194,6.748A1.3,1.3,0,0,0,1.506,8.713h0L1.6,8.7l2.136-.355L1.606,13.567a.949.949,0,0,0,1.718.8L7.085,7.2A1.3,1.3,0,0,0,7.218,6.376Z" transform="translate(-3789.629 989.242) rotate(9)" fill="#07e28e"/>
    </g>
    <g transform="translate(4028.956 -527.242)">
      <path id="Path_16946-6-65" data-name="Path 16946-6" d="M7.218,6.376A1.305,1.305,0,0,0,5.717,5.3h0l-.062.01L3.6,5.651,5.611,1.138A.809.809,0,0,0,4.186.38h0L.194,6.748A1.3,1.3,0,0,0,1.506,8.713h0L1.6,8.7l2.136-.355L1.606,13.567a.949.949,0,0,0,1.718.8L7.085,7.2A1.3,1.3,0,0,0,7.218,6.376Z" transform="translate(-3831.629 942.242) rotate(9)" fill="#07e28e"/>
      <path id="Path_16946-6-66" data-name="Path 16946-6" d="M7.218,6.376A1.305,1.305,0,0,0,5.717,5.3h0l-.062.01L3.6,5.651,5.611,1.138A.809.809,0,0,0,4.186.38h0L.194,6.748A1.3,1.3,0,0,0,1.506,8.713h0L1.6,8.7l2.136-.355L1.606,13.567a.949.949,0,0,0,1.718.8L7.085,7.2A1.3,1.3,0,0,0,7.218,6.376Z" transform="translate(-3872.629 989.242) rotate(9)" fill="#07e28e"/>
      <path id="Path_16946-6-67" data-name="Path 16946-6" d="M7.218,6.376A1.305,1.305,0,0,0,5.717,5.3h0l-.062.01L3.6,5.651,5.611,1.138A.809.809,0,0,0,4.186.38h0L.194,6.748A1.3,1.3,0,0,0,1.506,8.713h0L1.6,8.7l2.136-.355L1.606,13.567a.949.949,0,0,0,1.718.8L7.085,7.2A1.3,1.3,0,0,0,7.218,6.376Z" transform="translate(-3748.629 942.242) rotate(9)" fill="#07e28e"/>
      <path id="Path_16946-6-68" data-name="Path 16946-6" d="M7.218,6.376A1.305,1.305,0,0,0,5.717,5.3h0l-.062.01L3.6,5.651,5.611,1.138A.809.809,0,0,0,4.186.38h0L.194,6.748A1.3,1.3,0,0,0,1.506,8.713h0L1.6,8.7l2.136-.355L1.606,13.567a.949.949,0,0,0,1.718.8L7.085,7.2A1.3,1.3,0,0,0,7.218,6.376Z" transform="translate(-3789.629 989.242) rotate(9)" fill="#07e28e"/>
    </g>
    <g transform="translate(4182.956 -527.242)">
      <path id="Path_16946-6-69" data-name="Path 16946-6" d="M7.218,6.376A1.305,1.305,0,0,0,5.717,5.3h0l-.062.01L3.6,5.651,5.611,1.138A.809.809,0,0,0,4.186.38h0L.194,6.748A1.3,1.3,0,0,0,1.506,8.713h0L1.6,8.7l2.136-.355L1.606,13.567a.949.949,0,0,0,1.718.8L7.085,7.2A1.3,1.3,0,0,0,7.218,6.376Z" transform="translate(-3831.629 942.242) rotate(9)" fill="#07e28e"/>
      <path id="Path_16946-6-70" data-name="Path 16946-6" d="M7.218,6.376A1.305,1.305,0,0,0,5.717,5.3h0l-.062.01L3.6,5.651,5.611,1.138A.809.809,0,0,0,4.186.38h0L.194,6.748A1.3,1.3,0,0,0,1.506,8.713h0L1.6,8.7l2.136-.355L1.606,13.567a.949.949,0,0,0,1.718.8L7.085,7.2A1.3,1.3,0,0,0,7.218,6.376Z" transform="translate(-3872.629 989.242) rotate(9)" fill="#07e28e"/>
      <path id="Path_16946-6-71" data-name="Path 16946-6" d="M7.218,6.376A1.305,1.305,0,0,0,5.717,5.3h0l-.062.01L3.6,5.651,5.611,1.138A.809.809,0,0,0,4.186.38h0L.194,6.748A1.3,1.3,0,0,0,1.506,8.713h0L1.6,8.7l2.136-.355L1.606,13.567a.949.949,0,0,0,1.718.8L7.085,7.2A1.3,1.3,0,0,0,7.218,6.376Z" transform="translate(-3748.629 942.242) rotate(9)" fill="#07e28e"/>
      <path id="Path_16946-6-72" data-name="Path 16946-6" d="M7.218,6.376A1.305,1.305,0,0,0,5.717,5.3h0l-.062.01L3.6,5.651,5.611,1.138A.809.809,0,0,0,4.186.38h0L.194,6.748A1.3,1.3,0,0,0,1.506,8.713h0L1.6,8.7l2.136-.355L1.606,13.567a.949.949,0,0,0,1.718.8L7.085,7.2A1.3,1.3,0,0,0,7.218,6.376Z" transform="translate(-3789.629 989.242) rotate(9)" fill="#07e28e"/>
    </g>
    <g transform="translate(3874.956 -444.242)">
      <path id="Path_16946-6-73" data-name="Path 16946-6" d="M7.218,6.376A1.305,1.305,0,0,0,5.717,5.3h0l-.062.01L3.6,5.651,5.611,1.138A.809.809,0,0,0,4.186.38h0L.194,6.748A1.3,1.3,0,0,0,1.506,8.713h0L1.6,8.7l2.136-.355L1.606,13.567a.949.949,0,0,0,1.718.8L7.085,7.2A1.3,1.3,0,0,0,7.218,6.376Z" transform="translate(-3831.629 942.242) rotate(9)" fill="#07e28e"/>
      <path id="Path_16946-6-74" data-name="Path 16946-6" d="M7.218,6.376A1.305,1.305,0,0,0,5.717,5.3h0l-.062.01L3.6,5.651,5.611,1.138A.809.809,0,0,0,4.186.38h0L.194,6.748A1.3,1.3,0,0,0,1.506,8.713h0L1.6,8.7l2.136-.355L1.606,13.567a.949.949,0,0,0,1.718.8L7.085,7.2A1.3,1.3,0,0,0,7.218,6.376Z" transform="translate(-3872.629 989.242) rotate(9)" fill="#07e28e"/>
      <path id="Path_16946-6-75" data-name="Path 16946-6" d="M7.218,6.376A1.305,1.305,0,0,0,5.717,5.3h0l-.062.01L3.6,5.651,5.611,1.138A.809.809,0,0,0,4.186.38h0L.194,6.748A1.3,1.3,0,0,0,1.506,8.713h0L1.6,8.7l2.136-.355L1.606,13.567a.949.949,0,0,0,1.718.8L7.085,7.2A1.3,1.3,0,0,0,7.218,6.376Z" transform="translate(-3748.629 942.242) rotate(9)" fill="#07e28e"/>
      <path id="Path_16946-6-76" data-name="Path 16946-6" d="M7.218,6.376A1.305,1.305,0,0,0,5.717,5.3h0l-.062.01L3.6,5.651,5.611,1.138A.809.809,0,0,0,4.186.38h0L.194,6.748A1.3,1.3,0,0,0,1.506,8.713h0L1.6,8.7l2.136-.355L1.606,13.567a.949.949,0,0,0,1.718.8L7.085,7.2A1.3,1.3,0,0,0,7.218,6.376Z" transform="translate(-3789.629 989.242) rotate(9)" fill="#07e28e"/>
    </g>
    <g transform="translate(4028.956 -444.242)">
      <path id="Path_16946-6-77" data-name="Path 16946-6" d="M7.218,6.376A1.305,1.305,0,0,0,5.717,5.3h0l-.062.01L3.6,5.651,5.611,1.138A.809.809,0,0,0,4.186.38h0L.194,6.748A1.3,1.3,0,0,0,1.506,8.713h0L1.6,8.7l2.136-.355L1.606,13.567a.949.949,0,0,0,1.718.8L7.085,7.2A1.3,1.3,0,0,0,7.218,6.376Z" transform="translate(-3831.629 942.242) rotate(9)" fill="#07e28e"/>
      <path id="Path_16946-6-78" data-name="Path 16946-6" d="M7.218,6.376A1.305,1.305,0,0,0,5.717,5.3h0l-.062.01L3.6,5.651,5.611,1.138A.809.809,0,0,0,4.186.38h0L.194,6.748A1.3,1.3,0,0,0,1.506,8.713h0L1.6,8.7l2.136-.355L1.606,13.567a.949.949,0,0,0,1.718.8L7.085,7.2A1.3,1.3,0,0,0,7.218,6.376Z" transform="translate(-3872.629 989.242) rotate(9)" fill="#07e28e"/>
      <path id="Path_16946-6-79" data-name="Path 16946-6" d="M7.218,6.376A1.305,1.305,0,0,0,5.717,5.3h0l-.062.01L3.6,5.651,5.611,1.138A.809.809,0,0,0,4.186.38h0L.194,6.748A1.3,1.3,0,0,0,1.506,8.713h0L1.6,8.7l2.136-.355L1.606,13.567a.949.949,0,0,0,1.718.8L7.085,7.2A1.3,1.3,0,0,0,7.218,6.376Z" transform="translate(-3748.629 942.242) rotate(9)" fill="#07e28e"/>
      <path id="Path_16946-6-80" data-name="Path 16946-6" d="M7.218,6.376A1.305,1.305,0,0,0,5.717,5.3h0l-.062.01L3.6,5.651,5.611,1.138A.809.809,0,0,0,4.186.38h0L.194,6.748A1.3,1.3,0,0,0,1.506,8.713h0L1.6,8.7l2.136-.355L1.606,13.567a.949.949,0,0,0,1.718.8L7.085,7.2A1.3,1.3,0,0,0,7.218,6.376Z" transform="translate(-3789.629 989.242) rotate(9)" fill="#07e28e"/>
    </g>
    <g transform="translate(4182.956 -444.242)">
      <path id="Path_16946-6-81" data-name="Path 16946-6" d="M7.218,6.376A1.305,1.305,0,0,0,5.717,5.3h0l-.062.01L3.6,5.651,5.611,1.138A.809.809,0,0,0,4.186.38h0L.194,6.748A1.3,1.3,0,0,0,1.506,8.713h0L1.6,8.7l2.136-.355L1.606,13.567a.949.949,0,0,0,1.718.8L7.085,7.2A1.3,1.3,0,0,0,7.218,6.376Z" transform="translate(-3831.629 942.242) rotate(9)" fill="#07e28e"/>
      <path id="Path_16946-6-82" data-name="Path 16946-6" d="M7.218,6.376A1.305,1.305,0,0,0,5.717,5.3h0l-.062.01L3.6,5.651,5.611,1.138A.809.809,0,0,0,4.186.38h0L.194,6.748A1.3,1.3,0,0,0,1.506,8.713h0L1.6,8.7l2.136-.355L1.606,13.567a.949.949,0,0,0,1.718.8L7.085,7.2A1.3,1.3,0,0,0,7.218,6.376Z" transform="translate(-3872.629 989.242) rotate(9)" fill="#07e28e"/>
      <path id="Path_16946-6-83" data-name="Path 16946-6" d="M7.218,6.376A1.305,1.305,0,0,0,5.717,5.3h0l-.062.01L3.6,5.651,5.611,1.138A.809.809,0,0,0,4.186.38h0L.194,6.748A1.3,1.3,0,0,0,1.506,8.713h0L1.6,8.7l2.136-.355L1.606,13.567a.949.949,0,0,0,1.718.8L7.085,7.2A1.3,1.3,0,0,0,7.218,6.376Z" transform="translate(-3748.629 942.242) rotate(9)" fill="#07e28e"/>
      <path id="Path_16946-6-84" data-name="Path 16946-6" d="M7.218,6.376A1.305,1.305,0,0,0,5.717,5.3h0l-.062.01L3.6,5.651,5.611,1.138A.809.809,0,0,0,4.186.38h0L.194,6.748A1.3,1.3,0,0,0,1.506,8.713h0L1.6,8.7l2.136-.355L1.606,13.567a.949.949,0,0,0,1.718.8L7.085,7.2A1.3,1.3,0,0,0,7.218,6.376Z" transform="translate(-3789.629 989.242) rotate(9)" fill="#07e28e"/>
    </g>
    <g transform="translate(3874.956 -361.242)">
      <path id="Path_16946-6-85" data-name="Path 16946-6" d="M7.218,6.376A1.305,1.305,0,0,0,5.717,5.3h0l-.062.01L3.6,5.651,5.611,1.138A.809.809,0,0,0,4.186.38h0L.194,6.748A1.3,1.3,0,0,0,1.506,8.713h0L1.6,8.7l2.136-.355L1.606,13.567a.949.949,0,0,0,1.718.8L7.085,7.2A1.3,1.3,0,0,0,7.218,6.376Z" transform="translate(-3831.629 942.242) rotate(9)" fill="#07e28e"/>
      <path id="Path_16946-6-86" data-name="Path 16946-6" d="M7.218,6.376A1.305,1.305,0,0,0,5.717,5.3h0l-.062.01L3.6,5.651,5.611,1.138A.809.809,0,0,0,4.186.38h0L.194,6.748A1.3,1.3,0,0,0,1.506,8.713h0L1.6,8.7l2.136-.355L1.606,13.567a.949.949,0,0,0,1.718.8L7.085,7.2A1.3,1.3,0,0,0,7.218,6.376Z" transform="translate(-3872.629 989.242) rotate(9)" fill="#07e28e"/>
      <path id="Path_16946-6-87" data-name="Path 16946-6" d="M7.218,6.376A1.305,1.305,0,0,0,5.717,5.3h0l-.062.01L3.6,5.651,5.611,1.138A.809.809,0,0,0,4.186.38h0L.194,6.748A1.3,1.3,0,0,0,1.506,8.713h0L1.6,8.7l2.136-.355L1.606,13.567a.949.949,0,0,0,1.718.8L7.085,7.2A1.3,1.3,0,0,0,7.218,6.376Z" transform="translate(-3748.629 942.242) rotate(9)" fill="#07e28e"/>
      <path id="Path_16946-6-88" data-name="Path 16946-6" d="M7.218,6.376A1.305,1.305,0,0,0,5.717,5.3h0l-.062.01L3.6,5.651,5.611,1.138A.809.809,0,0,0,4.186.38h0L.194,6.748A1.3,1.3,0,0,0,1.506,8.713h0L1.6,8.7l2.136-.355L1.606,13.567a.949.949,0,0,0,1.718.8L7.085,7.2A1.3,1.3,0,0,0,7.218,6.376Z" transform="translate(-3789.629 989.242) rotate(9)" fill="#07e28e"/>
    </g>
    <g transform="translate(4028.956 -361.242)">
      <path id="Path_16946-6-89" data-name="Path 16946-6" d="M7.218,6.376A1.305,1.305,0,0,0,5.717,5.3h0l-.062.01L3.6,5.651,5.611,1.138A.809.809,0,0,0,4.186.38h0L.194,6.748A1.3,1.3,0,0,0,1.506,8.713h0L1.6,8.7l2.136-.355L1.606,13.567a.949.949,0,0,0,1.718.8L7.085,7.2A1.3,1.3,0,0,0,7.218,6.376Z" transform="translate(-3831.629 942.242) rotate(9)" fill="#07e28e"/>
      <path id="Path_16946-6-90" data-name="Path 16946-6" d="M7.218,6.376A1.305,1.305,0,0,0,5.717,5.3h0l-.062.01L3.6,5.651,5.611,1.138A.809.809,0,0,0,4.186.38h0L.194,6.748A1.3,1.3,0,0,0,1.506,8.713h0L1.6,8.7l2.136-.355L1.606,13.567a.949.949,0,0,0,1.718.8L7.085,7.2A1.3,1.3,0,0,0,7.218,6.376Z" transform="translate(-3872.629 989.242) rotate(9)" fill="#07e28e"/>
      <path id="Path_16946-6-91" data-name="Path 16946-6" d="M7.218,6.376A1.305,1.305,0,0,0,5.717,5.3h0l-.062.01L3.6,5.651,5.611,1.138A.809.809,0,0,0,4.186.38h0L.194,6.748A1.3,1.3,0,0,0,1.506,8.713h0L1.6,8.7l2.136-.355L1.606,13.567a.949.949,0,0,0,1.718.8L7.085,7.2A1.3,1.3,0,0,0,7.218,6.376Z" transform="translate(-3748.629 942.242) rotate(9)" fill="#07e28e"/>
      <path id="Path_16946-6-92" data-name="Path 16946-6" d="M7.218,6.376A1.305,1.305,0,0,0,5.717,5.3h0l-.062.01L3.6,5.651,5.611,1.138A.809.809,0,0,0,4.186.38h0L.194,6.748A1.3,1.3,0,0,0,1.506,8.713h0L1.6,8.7l2.136-.355L1.606,13.567a.949.949,0,0,0,1.718.8L7.085,7.2A1.3,1.3,0,0,0,7.218,6.376Z" transform="translate(-3789.629 989.242) rotate(9)" fill="#07e28e"/>
    </g>
    <g transform="translate(4182.956 -361.242)">
      <path id="Path_16946-6-93" data-name="Path 16946-6" d="M7.218,6.376A1.305,1.305,0,0,0,5.717,5.3h0l-.062.01L3.6,5.651,5.611,1.138A.809.809,0,0,0,4.186.38h0L.194,6.748A1.3,1.3,0,0,0,1.506,8.713h0L1.6,8.7l2.136-.355L1.606,13.567a.949.949,0,0,0,1.718.8L7.085,7.2A1.3,1.3,0,0,0,7.218,6.376Z" transform="translate(-3831.629 942.242) rotate(9)" fill="#07e28e"/>
      <path id="Path_16946-6-94" data-name="Path 16946-6" d="M7.218,6.376A1.305,1.305,0,0,0,5.717,5.3h0l-.062.01L3.6,5.651,5.611,1.138A.809.809,0,0,0,4.186.38h0L.194,6.748A1.3,1.3,0,0,0,1.506,8.713h0L1.6,8.7l2.136-.355L1.606,13.567a.949.949,0,0,0,1.718.8L7.085,7.2A1.3,1.3,0,0,0,7.218,6.376Z" transform="translate(-3872.629 989.242) rotate(9)" fill="#07e28e"/>
      <path id="Path_16946-6-95" data-name="Path 16946-6" d="M7.218,6.376A1.305,1.305,0,0,0,5.717,5.3h0l-.062.01L3.6,5.651,5.611,1.138A.809.809,0,0,0,4.186.38h0L.194,6.748A1.3,1.3,0,0,0,1.506,8.713h0L1.6,8.7l2.136-.355L1.606,13.567a.949.949,0,0,0,1.718.8L7.085,7.2A1.3,1.3,0,0,0,7.218,6.376Z" transform="translate(-3748.629 942.242) rotate(9)" fill="#07e28e"/>
      <path id="Path_16946-6-96" data-name="Path 16946-6" d="M7.218,6.376A1.305,1.305,0,0,0,5.717,5.3h0l-.062.01L3.6,5.651,5.611,1.138A.809.809,0,0,0,4.186.38h0L.194,6.748A1.3,1.3,0,0,0,1.506,8.713h0L1.6,8.7l2.136-.355L1.606,13.567a.949.949,0,0,0,1.718.8L7.085,7.2A1.3,1.3,0,0,0,7.218,6.376Z" transform="translate(-3789.629 989.242) rotate(9)" fill="#07e28e"/>
    </g>
    <g transform="translate(3874.956 -278.242)">
      <path id="Path_16946-6-97" data-name="Path 16946-6" d="M7.218,6.376A1.305,1.305,0,0,0,5.717,5.3h0l-.062.01L3.6,5.651,5.611,1.138A.809.809,0,0,0,4.186.38h0L.194,6.748A1.3,1.3,0,0,0,1.506,8.713h0L1.6,8.7l2.136-.355L1.606,13.567a.949.949,0,0,0,1.718.8L7.085,7.2A1.3,1.3,0,0,0,7.218,6.376Z" transform="translate(-3831.629 942.242) rotate(9)" fill="#07e28e"/>
      <path id="Path_16946-6-98" data-name="Path 16946-6" d="M7.218,6.376A1.305,1.305,0,0,0,5.717,5.3h0l-.062.01L3.6,5.651,5.611,1.138A.809.809,0,0,0,4.186.38h0L.194,6.748A1.3,1.3,0,0,0,1.506,8.713h0L1.6,8.7l2.136-.355L1.606,13.567a.949.949,0,0,0,1.718.8L7.085,7.2A1.3,1.3,0,0,0,7.218,6.376Z" transform="translate(-3872.629 989.242) rotate(9)" fill="#07e28e"/>
      <path id="Path_16946-6-99" data-name="Path 16946-6" d="M7.218,6.376A1.305,1.305,0,0,0,5.717,5.3h0l-.062.01L3.6,5.651,5.611,1.138A.809.809,0,0,0,4.186.38h0L.194,6.748A1.3,1.3,0,0,0,1.506,8.713h0L1.6,8.7l2.136-.355L1.606,13.567a.949.949,0,0,0,1.718.8L7.085,7.2A1.3,1.3,0,0,0,7.218,6.376Z" transform="translate(-3748.629 942.242) rotate(9)" fill="#07e28e"/>
      <path id="Path_16946-6-100" data-name="Path 16946-6" d="M7.218,6.376A1.305,1.305,0,0,0,5.717,5.3h0l-.062.01L3.6,5.651,5.611,1.138A.809.809,0,0,0,4.186.38h0L.194,6.748A1.3,1.3,0,0,0,1.506,8.713h0L1.6,8.7l2.136-.355L1.606,13.567a.949.949,0,0,0,1.718.8L7.085,7.2A1.3,1.3,0,0,0,7.218,6.376Z" transform="translate(-3789.629 989.242) rotate(9)" fill="#07e28e"/>
    </g>
    <g transform="translate(4028.956 -278.242)">
      <path id="Path_16946-6-101" data-name="Path 16946-6" d="M7.218,6.376A1.305,1.305,0,0,0,5.717,5.3h0l-.062.01L3.6,5.651,5.611,1.138A.809.809,0,0,0,4.186.38h0L.194,6.748A1.3,1.3,0,0,0,1.506,8.713h0L1.6,8.7l2.136-.355L1.606,13.567a.949.949,0,0,0,1.718.8L7.085,7.2A1.3,1.3,0,0,0,7.218,6.376Z" transform="translate(-3831.629 942.242) rotate(9)" fill="#07e28e"/>
      <path id="Path_16946-6-102" data-name="Path 16946-6" d="M7.218,6.376A1.305,1.305,0,0,0,5.717,5.3h0l-.062.01L3.6,5.651,5.611,1.138A.809.809,0,0,0,4.186.38h0L.194,6.748A1.3,1.3,0,0,0,1.506,8.713h0L1.6,8.7l2.136-.355L1.606,13.567a.949.949,0,0,0,1.718.8L7.085,7.2A1.3,1.3,0,0,0,7.218,6.376Z" transform="translate(-3872.629 989.242) rotate(9)" fill="#07e28e"/>
      <path id="Path_16946-6-103" data-name="Path 16946-6" d="M7.218,6.376A1.305,1.305,0,0,0,5.717,5.3h0l-.062.01L3.6,5.651,5.611,1.138A.809.809,0,0,0,4.186.38h0L.194,6.748A1.3,1.3,0,0,0,1.506,8.713h0L1.6,8.7l2.136-.355L1.606,13.567a.949.949,0,0,0,1.718.8L7.085,7.2A1.3,1.3,0,0,0,7.218,6.376Z" transform="translate(-3748.629 942.242) rotate(9)" fill="#07e28e"/>
      <path id="Path_16946-6-104" data-name="Path 16946-6" d="M7.218,6.376A1.305,1.305,0,0,0,5.717,5.3h0l-.062.01L3.6,5.651,5.611,1.138A.809.809,0,0,0,4.186.38h0L.194,6.748A1.3,1.3,0,0,0,1.506,8.713h0L1.6,8.7l2.136-.355L1.606,13.567a.949.949,0,0,0,1.718.8L7.085,7.2A1.3,1.3,0,0,0,7.218,6.376Z" transform="translate(-3789.629 989.242) rotate(9)" fill="#07e28e"/>
    </g>
    <g transform="translate(4182.956 -278.242)">
      <path id="Path_16946-6-105" data-name="Path 16946-6" d="M7.218,6.376A1.305,1.305,0,0,0,5.717,5.3h0l-.062.01L3.6,5.651,5.611,1.138A.809.809,0,0,0,4.186.38h0L.194,6.748A1.3,1.3,0,0,0,1.506,8.713h0L1.6,8.7l2.136-.355L1.606,13.567a.949.949,0,0,0,1.718.8L7.085,7.2A1.3,1.3,0,0,0,7.218,6.376Z" transform="translate(-3831.629 942.242) rotate(9)" fill="#07e28e"/>
      <path id="Path_16946-6-106" data-name="Path 16946-6" d="M7.218,6.376A1.305,1.305,0,0,0,5.717,5.3h0l-.062.01L3.6,5.651,5.611,1.138A.809.809,0,0,0,4.186.38h0L.194,6.748A1.3,1.3,0,0,0,1.506,8.713h0L1.6,8.7l2.136-.355L1.606,13.567a.949.949,0,0,0,1.718.8L7.085,7.2A1.3,1.3,0,0,0,7.218,6.376Z" transform="translate(-3872.629 989.242) rotate(9)" fill="#07e28e"/>
      <path id="Path_16946-6-107" data-name="Path 16946-6" d="M7.218,6.376A1.305,1.305,0,0,0,5.717,5.3h0l-.062.01L3.6,5.651,5.611,1.138A.809.809,0,0,0,4.186.38h0L.194,6.748A1.3,1.3,0,0,0,1.506,8.713h0L1.6,8.7l2.136-.355L1.606,13.567a.949.949,0,0,0,1.718.8L7.085,7.2A1.3,1.3,0,0,0,7.218,6.376Z" transform="translate(-3748.629 942.242) rotate(9)" fill="#07e28e"/>
      <path id="Path_16946-6-108" data-name="Path 16946-6" d="M7.218,6.376A1.305,1.305,0,0,0,5.717,5.3h0l-.062.01L3.6,5.651,5.611,1.138A.809.809,0,0,0,4.186.38h0L.194,6.748A1.3,1.3,0,0,0,1.506,8.713h0L1.6,8.7l2.136-.355L1.606,13.567a.949.949,0,0,0,1.718.8L7.085,7.2A1.3,1.3,0,0,0,7.218,6.376Z" transform="translate(-3789.629 989.242) rotate(9)" fill="#07e28e"/>
    </g>
    <g transform="translate(3874.956 -195.242)">
      <path id="Path_16946-6-109" data-name="Path 16946-6" d="M7.218,6.376A1.305,1.305,0,0,0,5.717,5.3h0l-.062.01L3.6,5.651,5.611,1.138A.809.809,0,0,0,4.186.38h0L.194,6.748A1.3,1.3,0,0,0,1.506,8.713h0L1.6,8.7l2.136-.355L1.606,13.567a.949.949,0,0,0,1.718.8L7.085,7.2A1.3,1.3,0,0,0,7.218,6.376Z" transform="translate(-3831.629 942.242) rotate(9)" fill="#07e28e"/>
      <path id="Path_16946-6-110" data-name="Path 16946-6" d="M7.218,6.376A1.305,1.305,0,0,0,5.717,5.3h0l-.062.01L3.6,5.651,5.611,1.138A.809.809,0,0,0,4.186.38h0L.194,6.748A1.3,1.3,0,0,0,1.506,8.713h0L1.6,8.7l2.136-.355L1.606,13.567a.949.949,0,0,0,1.718.8L7.085,7.2A1.3,1.3,0,0,0,7.218,6.376Z" transform="translate(-3872.629 989.242) rotate(9)" fill="#07e28e"/>
      <path id="Path_16946-6-111" data-name="Path 16946-6" d="M7.218,6.376A1.305,1.305,0,0,0,5.717,5.3h0l-.062.01L3.6,5.651,5.611,1.138A.809.809,0,0,0,4.186.38h0L.194,6.748A1.3,1.3,0,0,0,1.506,8.713h0L1.6,8.7l2.136-.355L1.606,13.567a.949.949,0,0,0,1.718.8L7.085,7.2A1.3,1.3,0,0,0,7.218,6.376Z" transform="translate(-3748.629 942.242) rotate(9)" fill="#07e28e"/>
      <path id="Path_16946-6-112" data-name="Path 16946-6" d="M7.218,6.376A1.305,1.305,0,0,0,5.717,5.3h0l-.062.01L3.6,5.651,5.611,1.138A.809.809,0,0,0,4.186.38h0L.194,6.748A1.3,1.3,0,0,0,1.506,8.713h0L1.6,8.7l2.136-.355L1.606,13.567a.949.949,0,0,0,1.718.8L7.085,7.2A1.3,1.3,0,0,0,7.218,6.376Z" transform="translate(-3789.629 989.242) rotate(9)" fill="#07e28e"/>
    </g>
    <g transform="translate(4028.956 -195.242)">
      <path id="Path_16946-6-113" data-name="Path 16946-6" d="M7.218,6.376A1.305,1.305,0,0,0,5.717,5.3h0l-.062.01L3.6,5.651,5.611,1.138A.809.809,0,0,0,4.186.38h0L.194,6.748A1.3,1.3,0,0,0,1.506,8.713h0L1.6,8.7l2.136-.355L1.606,13.567a.949.949,0,0,0,1.718.8L7.085,7.2A1.3,1.3,0,0,0,7.218,6.376Z" transform="translate(-3831.629 942.242) rotate(9)" fill="#07e28e"/>
      <path id="Path_16946-6-114" data-name="Path 16946-6" d="M7.218,6.376A1.305,1.305,0,0,0,5.717,5.3h0l-.062.01L3.6,5.651,5.611,1.138A.809.809,0,0,0,4.186.38h0L.194,6.748A1.3,1.3,0,0,0,1.506,8.713h0L1.6,8.7l2.136-.355L1.606,13.567a.949.949,0,0,0,1.718.8L7.085,7.2A1.3,1.3,0,0,0,7.218,6.376Z" transform="translate(-3872.629 989.242) rotate(9)" fill="#07e28e"/>
      <path id="Path_16946-6-115" data-name="Path 16946-6" d="M7.218,6.376A1.305,1.305,0,0,0,5.717,5.3h0l-.062.01L3.6,5.651,5.611,1.138A.809.809,0,0,0,4.186.38h0L.194,6.748A1.3,1.3,0,0,0,1.506,8.713h0L1.6,8.7l2.136-.355L1.606,13.567a.949.949,0,0,0,1.718.8L7.085,7.2A1.3,1.3,0,0,0,7.218,6.376Z" transform="translate(-3748.629 942.242) rotate(9)" fill="#07e28e"/>
      <path id="Path_16946-6-116" data-name="Path 16946-6" d="M7.218,6.376A1.305,1.305,0,0,0,5.717,5.3h0l-.062.01L3.6,5.651,5.611,1.138A.809.809,0,0,0,4.186.38h0L.194,6.748A1.3,1.3,0,0,0,1.506,8.713h0L1.6,8.7l2.136-.355L1.606,13.567a.949.949,0,0,0,1.718.8L7.085,7.2A1.3,1.3,0,0,0,7.218,6.376Z" transform="translate(-3789.629 989.242) rotate(9)" fill="#07e28e"/>
    </g>
    <g transform="translate(4182.956 -195.242)">
      <path id="Path_16946-6-117" data-name="Path 16946-6" d="M7.218,6.376A1.305,1.305,0,0,0,5.717,5.3h0l-.062.01L3.6,5.651,5.611,1.138A.809.809,0,0,0,4.186.38h0L.194,6.748A1.3,1.3,0,0,0,1.506,8.713h0L1.6,8.7l2.136-.355L1.606,13.567a.949.949,0,0,0,1.718.8L7.085,7.2A1.3,1.3,0,0,0,7.218,6.376Z" transform="translate(-3831.629 942.242) rotate(9)" fill="#07e28e"/>
      <path id="Path_16946-6-118" data-name="Path 16946-6" d="M7.218,6.376A1.305,1.305,0,0,0,5.717,5.3h0l-.062.01L3.6,5.651,5.611,1.138A.809.809,0,0,0,4.186.38h0L.194,6.748A1.3,1.3,0,0,0,1.506,8.713h0L1.6,8.7l2.136-.355L1.606,13.567a.949.949,0,0,0,1.718.8L7.085,7.2A1.3,1.3,0,0,0,7.218,6.376Z" transform="translate(-3872.629 989.242) rotate(9)" fill="#07e28e"/>
      <path id="Path_16946-6-119" data-name="Path 16946-6" d="M7.218,6.376A1.305,1.305,0,0,0,5.717,5.3h0l-.062.01L3.6,5.651,5.611,1.138A.809.809,0,0,0,4.186.38h0L.194,6.748A1.3,1.3,0,0,0,1.506,8.713h0L1.6,8.7l2.136-.355L1.606,13.567a.949.949,0,0,0,1.718.8L7.085,7.2A1.3,1.3,0,0,0,7.218,6.376Z" transform="translate(-3748.629 942.242) rotate(9)" fill="#07e28e"/>
      <path id="Path_16946-6-120" data-name="Path 16946-6" d="M7.218,6.376A1.305,1.305,0,0,0,5.717,5.3h0l-.062.01L3.6,5.651,5.611,1.138A.809.809,0,0,0,4.186.38h0L.194,6.748A1.3,1.3,0,0,0,1.506,8.713h0L1.6,8.7l2.136-.355L1.606,13.567a.949.949,0,0,0,1.718.8L7.085,7.2A1.3,1.3,0,0,0,7.218,6.376Z" transform="translate(-3789.629 989.242) rotate(9)" fill="#07e28e"/>
    </g>
  </g>
</svg>
