<svg xmlns="http://www.w3.org/2000/svg" width="10" height="22" viewBox="0 0 10 22">
  <g id="flash-QR-code" transform="translate(-9 -2)">
    <path id="Path_16480" data-name="Path 16480" d="M19,4H9V3a.928.928,0,0,1,.833-1h8.333A.928.928,0,0,1,19,3Z" transform="translate(0)" fill="#6a6a7c"/>
    <path id="Path_16481" data-name="Path 16481" d="M9,5V6.728A2.461,2.461,0,0,0,9.42,8.1l.687,1.022a3.28,3.28,0,0,1,.56,1.832V22.348A1.659,1.659,0,0,0,12.333,24h3.333a1.659,1.659,0,0,0,1.667-1.652V10.957a3.284,3.284,0,0,1,.56-1.833L18.58,8.1A2.456,2.456,0,0,0,19,6.728V5Zm5,10.739h0a1.659,1.659,0,0,1-1.667-1.652V12.435A1.659,1.659,0,0,1,14,10.783h0a1.659,1.659,0,0,1,1.667,1.652v1.652A1.659,1.659,0,0,1,14,15.739Z" transform="translate(0 0)" fill="#6a6a7c"/>
    <circle id="Ellipse_20" data-name="Ellipse 20" cx="1" cy="1" r="1" transform="translate(13 12.833)" fill="#6a6a7c"/>
  </g>
</svg>
