<svg xmlns="http://www.w3.org/2000/svg" width="161.699" height="197.512" viewBox="0 0 161.699 197.512">
  <g id="flash-left" transform="translate(0 0.512)">
    <path id="Path_16946-6" data-name="Path 16946-6" d="M-360.922,638.984a9.049,9.049,0,0,0-10.147-7.8h0l-.434.057-14.287,1.872,14.962-30.807a5.614,5.614,0,0,0-1.909-7.1,5.608,5.608,0,0,0-7.786,1.516h0l-29.154,43.193a8.959,8.959,0,0,0-1.428,6.2,8.971,8.971,0,0,0,10.056,7.732h0l0,0,.637-.085,14.887-1.958-15.972,35.7a6.611,6.611,0,0,0,2.764,8.4,6.59,6.59,0,0,0,8.955-2.46l27.738-48.806A9.017,9.017,0,0,0-360.922,638.984Z" transform="translate(411.19 -499.75)" fill="#db1477"/>
    <path id="Path_18152" data-name="Path 18152" d="M-356.387,635.988a9.179,9.179,0,0,0-10.292-7.909h0l-.441.059-14.49,1.9,15.175-31.246a5.7,5.7,0,0,0-1.935-7.2,5.69,5.69,0,0,0-7.9,1.537v0l-29.571,43.806a9.088,9.088,0,0,0-1.447,6.285,9.1,9.1,0,0,0,10.2,7.843h0l0,0,.647-.085,15.1-1.985-16.2,36.207a6.7,6.7,0,0,0,2.805,8.514,6.682,6.682,0,0,0,9.08-2.495l28.133-49.5A9.148,9.148,0,0,0-356.387,635.988Z" transform="translate(413.582 -502.024)" fill="#dd2878" stroke="#fff" stroke-miterlimit="10" stroke-width="0.017"/>
    <path id="Path_18153" data-name="Path 18153" d="M-351.853,632.993a9.3,9.3,0,0,0-10.435-8.022h0l-.447.06-14.694,1.924,15.388-31.683a5.774,5.774,0,0,0-1.963-7.3,5.769,5.769,0,0,0-8.007,1.558h0L-402,633.948a9.214,9.214,0,0,0-1.467,6.374,9.225,9.225,0,0,0,10.342,7.952h0l0,0,.655-.086,15.31-2.013-16.425,36.714a6.8,6.8,0,0,0,2.844,8.635,6.776,6.776,0,0,0,9.209-2.53L-353,638.8A9.263,9.263,0,0,0-351.853,632.993Z" transform="translate(415.974 -504.297)" fill="#de3a7a" stroke="#fff" stroke-miterlimit="10" stroke-width="0.034"/>
    <path id="Path_18154" data-name="Path 18154" d="M-347.318,630a9.434,9.434,0,0,0-10.579-8.132h0l-.454.06-14.9,1.951,15.6-32.122a5.853,5.853,0,0,0-1.989-7.4,5.85,5.85,0,0,0-8.119,1.581h0l-30.4,45.035a9.337,9.337,0,0,0-1.488,6.461,9.353,9.353,0,0,0,10.485,8.064h0l0,0,.665-.088,15.521-2.042-16.653,37.223a6.893,6.893,0,0,0,2.883,8.753,6.87,6.87,0,0,0,9.336-2.564l28.922-50.889A9.406,9.406,0,0,0-347.318,630Z" transform="translate(418.366 -506.571)" fill="#e14a7c" stroke="#fff" stroke-miterlimit="10" stroke-width="0.052"/>
    <path id="Path_18155" data-name="Path 18155" d="M-342.782,627a9.563,9.563,0,0,0-10.724-8.243h0l-.458.062-15.1,1.977,15.812-32.561a5.933,5.933,0,0,0-2.016-7.5,5.928,5.928,0,0,0-8.228,1.6h0l-30.815,45.65a9.469,9.469,0,0,0-1.507,6.55,9.48,9.48,0,0,0,10.627,8.173h0l0,0,.673-.089,15.733-2.068-16.879,37.729a6.986,6.986,0,0,0,2.922,8.874,6.963,6.963,0,0,0,9.464-2.6l29.315-51.583A9.526,9.526,0,0,0-342.782,627Z" transform="translate(420.758 -508.846)" fill="#e3577c" stroke="#fff" stroke-miterlimit="10" stroke-width="0.069"/>
    <path id="Path_18156" data-name="Path 18156" d="M-338.247,624a9.693,9.693,0,0,0-10.869-8.353h0l-.465.062-15.3,2.005,16.025-33a6.011,6.011,0,0,0-2.044-7.605,6.006,6.006,0,0,0-8.339,1.623h0L-390.472,625A9.591,9.591,0,0,0-392,631.638a9.607,9.607,0,0,0,10.77,8.283h0l.007,0,.681-.089,15.946-2.1L-381.7,675.974a7.081,7.081,0,0,0,2.961,8.992,7.058,7.058,0,0,0,9.591-2.634l29.711-52.278A9.657,9.657,0,0,0-338.247,624Z" transform="translate(423.149 -511.12)" fill="#e6657b" stroke="#fff" stroke-miterlimit="10" stroke-width="0.086"/>
    <path id="Path_18157" data-name="Path 18157" d="M-333.711,621.011a9.822,9.822,0,0,0-11.014-8.465h0l-.473.063-15.507,2.029,16.24-33.436a6.094,6.094,0,0,0-2.072-7.706,6.088,6.088,0,0,0-8.451,1.644h0l-31.642,46.879a9.719,9.719,0,0,0-1.55,6.726,9.737,9.737,0,0,0,10.914,8.392h0l0,0,.693-.091,16.157-2.125-17.334,38.747a7.173,7.173,0,0,0,3,9.111,7.152,7.152,0,0,0,9.719-2.67l30.1-52.972A9.788,9.788,0,0,0-333.711,621.011Z" transform="translate(425.541 -513.394)" fill="#e87279" stroke="#fff" stroke-miterlimit="10" stroke-width="0.103"/>
    <path id="Path_18158" data-name="Path 18158" d="M-329.178,618.015a9.949,9.949,0,0,0-11.155-8.576h0l-.48.063-15.708,2.057,16.451-33.873a6.176,6.176,0,0,0-2.1-7.809,6.166,6.166,0,0,0-8.56,1.667h0l-32.059,47.492a9.859,9.859,0,0,0-1.569,6.813,9.863,9.863,0,0,0,11.058,8.5h0l0,0,.7-.091,16.368-2.153-17.56,39.253a7.268,7.268,0,0,0,3.039,9.231,7.246,7.246,0,0,0,9.846-2.7l30.5-53.666A9.9,9.9,0,0,0-329.178,618.015Z" transform="translate(427.933 -515.668)" fill="#eb7f75" stroke="#fff" stroke-miterlimit="10" stroke-width="0.12"/>
    <path id="Path_18159" data-name="Path 18159" d="M-324.642,615.018a10.079,10.079,0,0,0-11.3-8.687h0l-.485.065-15.913,2.083,16.664-34.312a6.252,6.252,0,0,0-2.125-7.908,6.247,6.247,0,0,0-8.672,1.686v0l-32.473,48.107a9.983,9.983,0,0,0-1.589,6.9,9.991,9.991,0,0,0,11.2,8.614h0l0,0,.711-.094,16.58-2.181-17.79,39.762a7.363,7.363,0,0,0,3.08,9.35,7.34,7.34,0,0,0,9.975-2.74l30.893-54.359A10.025,10.025,0,0,0-324.642,615.018Z" transform="translate(430.325 -517.942)" fill="#ee8b70" stroke="#fff" stroke-miterlimit="10" stroke-width="0.138"/>
    <path id="Path_18160" data-name="Path 18160" d="M-320.107,612.022a10.207,10.207,0,0,0-11.445-8.8h0l-.491.065L-348.16,605.4l16.877-34.752a6.331,6.331,0,0,0-2.153-8.009,6.325,6.325,0,0,0-8.781,1.709h0L-375.1,613.071a10.1,10.1,0,0,0-1.61,6.991,10.118,10.118,0,0,0,11.342,8.722h0l0,0,.719-.094,16.793-2.21-18.017,40.269a7.458,7.458,0,0,0,3.12,9.471,7.431,7.431,0,0,0,10.1-2.774l31.29-55.055A10.167,10.167,0,0,0-320.107,612.022Z" transform="translate(432.716 -520.216)" fill="#f1966a" stroke="#fff" stroke-miterlimit="10" stroke-width="0.155"/>
    <path id="Path_18161" data-name="Path 18161" d="M-315.571,609.028a10.336,10.336,0,0,0-11.589-8.909h0l-.5.067-16.32,2.137,17.09-35.189a6.411,6.411,0,0,0-2.179-8.111,6.406,6.406,0,0,0-8.893,1.732h0l-33.3,49.334a10.229,10.229,0,0,0-1.629,7.078A10.245,10.245,0,0,0-361.408,626h0l0,0,.729-.1,17-2.236-18.243,40.776a7.55,7.55,0,0,0,3.16,9.589,7.527,7.527,0,0,0,10.228-2.808l31.683-55.749A10.292,10.292,0,0,0-315.571,609.028Z" transform="translate(435.108 -522.49)" fill="#f5a262" stroke="#fff" stroke-miterlimit="10" stroke-width="0.172"/>
    <path id="Path_18162" data-name="Path 18162" d="M-311.036,606.031a10.465,10.465,0,0,0-11.734-9.02h0l-.5.067-16.521,2.164,17.3-35.628A6.494,6.494,0,0,0-324.7,555.4a6.488,6.488,0,0,0-9,1.753h0l-33.717,49.951a10.365,10.365,0,0,0-1.649,7.166,10.373,10.373,0,0,0,11.628,8.942h0l.007,0,.737-.1,17.216-2.265-18.471,41.285a7.644,7.644,0,0,0,3.2,9.708A7.619,7.619,0,0,0-344.4,669l32.078-56.444A10.417,10.417,0,0,0-311.036,606.031Z" transform="translate(437.5 -524.764)" fill="#f8ad58" stroke="#fff" stroke-miterlimit="10" stroke-width="0.189"/>
    <path id="Path_18163" data-name="Path 18163" d="M-306.5,603.035a10.591,10.591,0,0,0-11.877-9.131h0l-.509.068-16.726,2.19L-318.1,560.1a6.574,6.574,0,0,0-2.234-8.313,6.565,6.565,0,0,0-9.114,1.774h0l-34.132,50.564a10.479,10.479,0,0,0-1.67,7.254,10.5,10.5,0,0,0,11.771,9.053h0l.006,0,.746-.1,17.427-2.293L-354,659.833a7.739,7.739,0,0,0,3.238,9.828,7.714,7.714,0,0,0,10.482-2.878l32.473-57.138A10.545,10.545,0,0,0-306.5,603.035Z" transform="translate(439.892 -527.038)" fill="#fcb74c" stroke="#fff" stroke-miterlimit="10" stroke-width="0.207"/>
    <path id="Path_18164" data-name="Path 18164" d="M-301.967,600.039a10.722,10.722,0,0,0-12.022-9.241h0l-.515.068-16.929,2.218,17.729-36.5a6.653,6.653,0,0,0-2.262-8.414,6.646,6.646,0,0,0-9.225,1.8h0l-34.547,51.178a10.612,10.612,0,0,0-1.69,7.344,10.626,10.626,0,0,0,11.914,9.161h0l0,0,.756-.1,17.638-2.32-18.925,42.3a7.834,7.834,0,0,0,3.277,9.947,7.807,7.807,0,0,0,10.61-2.914l32.867-57.831A10.673,10.673,0,0,0-301.967,600.039Z" transform="translate(442.284 -529.312)" fill="#ffc13e" stroke="#fff" stroke-miterlimit="10" stroke-width="0.224"/>
    <path id="Path_18165" data-name="Path 18165" d="M-297.431,597.043a10.851,10.851,0,0,0-12.167-9.352h0l-.522.07L-327.252,590l17.941-36.94a6.735,6.735,0,0,0-2.288-8.516,6.728,6.728,0,0,0-9.337,1.818h0L-355.9,598.158a10.745,10.745,0,0,0-1.711,7.43,10.756,10.756,0,0,0,12.059,9.274h0l0,0,.764-.1,17.851-2.348-19.152,42.807a7.928,7.928,0,0,0,3.316,10.067,7.9,7.9,0,0,0,10.737-2.948l33.262-58.527A10.808,10.808,0,0,0-297.431,597.043Z" transform="translate(444.675 -531.586)" fill="#ffcb2d" stroke="#fff" stroke-miterlimit="10" stroke-width="0.241"/>
    <path id="Path_18166" data-name="Path 18166" d="M-292.9,594.048a10.98,10.98,0,0,0-12.311-9.464h0l-.527.07-17.336,2.27,18.154-37.379a6.811,6.811,0,0,0-2.315-8.615,6.8,6.8,0,0,0-9.446,1.837v0l-35.376,52.406a10.868,10.868,0,0,0-1.732,7.519,10.885,10.885,0,0,0,12.2,9.383h0l0,0,.774-.1,18.063-2.376-19.38,43.316a8.023,8.023,0,0,0,3.355,10.186,8,8,0,0,0,10.866-2.984l33.655-59.219A10.935,10.935,0,0,0-292.9,594.048Z" transform="translate(447.067 -533.86)" fill="#ffd515" stroke="#fff" stroke-miterlimit="10" stroke-width="0.258"/>
    <path id="Path_16946-6-2" data-name="Path 16946-6" d="M-288.361,591.052a11.11,11.11,0,0,0-12.456-9.574h0l-.533.072-17.539,2.3,18.367-37.818a6.892,6.892,0,0,0-2.342-8.716,6.886,6.886,0,0,0-9.558,1.86h0l-35.791,53.021a11,11,0,0,0-1.751,7.607,11.011,11.011,0,0,0,12.344,9.493h0l0,0,.782-.1,18.274-2.4-19.606,43.822a8.115,8.115,0,0,0,3.4,10.306,8.087,8.087,0,0,0,10.991-3.018l34.051-59.914A11.064,11.064,0,0,0-288.361,591.052Z" transform="translate(449.459 -536.134)" fill="#ffdf00" stroke="#fff" stroke-miterlimit="10" stroke-width="1"/>
  </g>
</svg>
