<svg xmlns="http://www.w3.org/2000/svg" width="16.508" height="25.71" viewBox="0 0 16.508 25.71">
  <g id="free-charge" transform="translate(-695.043 -379.826)">
    <path id="Path_16946-6" data-name="Path 16946-6" d="M704.586,398.219a1.7,1.7,0,0,0-1.909-1.467h0l-.082.011-2.688.352,2.815-5.8a1.055,1.055,0,0,0-1.823-1.051h0l-5.485,8.126a1.695,1.695,0,0,0,1.623,2.62h0l.12-.016,2.8-.368-3,6.716a1.237,1.237,0,0,0,2.2,1.116l5.219-9.182A1.7,1.7,0,0,0,704.586,398.219Z" transform="translate(0 -3.698)" fill="#fff" stroke="#07e28e" stroke-miterlimit="10" stroke-width="0.169"/>
    <path id="Path_21183" data-name="Path 21183" d="M705.973,397.091A1.758,1.758,0,0,0,704,395.575h0l-.085.011-2.775.363,2.907-5.984a1.089,1.089,0,0,0-1.883-1.085h0l-5.664,8.39a1.75,1.75,0,0,0,1.676,2.706h0l.124-.016,2.892-.381-3.1,6.935a1.278,1.278,0,0,0,2.276,1.153l5.388-9.481A1.749,1.749,0,0,0,705.973,397.091Z" transform="translate(-0.406 -3.17)" fill="#fff" stroke="#07e28e" stroke-miterlimit="10" stroke-width="0.169"/>
    <path id="Path_21184" data-name="Path 21184" d="M707.36,395.961a1.814,1.814,0,0,0-2.033-1.563h0l-.087.012-2.863.375,3-6.173a1.124,1.124,0,0,0-1.942-1.119h0l-5.842,8.654a1.8,1.8,0,0,0,1.729,2.791h0l.128-.017,2.983-.392-3.2,7.153a1.318,1.318,0,0,0,2.348,1.189l5.558-9.78A1.809,1.809,0,0,0,707.36,395.961Z" transform="translate(-0.813 -2.641)" fill="#fff" stroke="#07e28e" stroke-miterlimit="10" stroke-width="0.169"/>
    <path id="Path_21185" data-name="Path 21185" d="M708.746,394.833a1.868,1.868,0,0,0-2.1-1.611h0l-.09.012-2.95.386,3.089-6.361a1.158,1.158,0,0,0-2-1.153h0l-6.02,8.918a1.861,1.861,0,0,0,1.781,2.877h0l.131-.017,3.074-.4-3.3,7.371a1.358,1.358,0,0,0,2.42,1.226L708.516,396A1.859,1.859,0,0,0,708.746,394.833Z" transform="translate(-1.219 -2.113)" fill="#fff" stroke="#07e28e" stroke-miterlimit="10" stroke-width="0.169"/>
    <path id="Path_21186" data-name="Path 21186" d="M710.133,393.7a1.924,1.924,0,0,0-2.157-1.658h0l-.092.012-3.038.4,3.181-6.55a1.192,1.192,0,0,0-2.061-1.187h0l-6.2,9.183a1.915,1.915,0,0,0,1.834,2.961h0l.135-.018,3.165-.416-3.4,7.59A1.4,1.4,0,0,0,704,405.281l5.9-10.377A1.921,1.921,0,0,0,710.133,393.7Z" transform="translate(-1.626 -1.585)" fill="#fff" stroke="#07e28e" stroke-miterlimit="10" stroke-width="0.169"/>
    <path id="Path_21187" data-name="Path 21187" d="M711.519,392.575a1.979,1.979,0,0,0-2.219-1.706h0l-.095.012-3.125.41,3.272-6.738a1.226,1.226,0,0,0-2.12-1.222h0l-6.377,9.447a1.97,1.97,0,0,0,1.888,3.046h0l.14-.019,3.256-.428-3.493,7.809a1.438,1.438,0,0,0,2.563,1.3l6.067-10.675A1.967,1.967,0,0,0,711.519,392.575Z" transform="translate(-2.033 -1.056)" fill="#fff" stroke="#07e28e" stroke-miterlimit="10" stroke-width="0.169"/>
    <path id="Path_21188" data-name="Path 21188" d="M712.906,391.446a2.034,2.034,0,0,0-2.281-1.753h0l-.1.013-3.212.421,3.364-6.927a1.261,1.261,0,0,0-2.18-1.256h0l-6.555,9.711a2.026,2.026,0,0,0,1.94,3.132h0l.143-.019,3.347-.44-3.591,8.026a1.479,1.479,0,0,0,2.635,1.335l6.237-10.973A2.023,2.023,0,0,0,712.906,391.446Z" transform="translate(-2.439 -0.528)" fill="#fff" stroke="#07e28e" stroke-miterlimit="10" stroke-width="0.169"/>
    <path id="Path_16946-6-2" data-name="Path 16946-6" d="M714.293,390.317a2.09,2.09,0,0,0-2.343-1.8h0l-.1.013-3.3.432L712,381.846a1.3,1.3,0,0,0-2.239-1.29h0l-6.733,9.975a2.081,2.081,0,0,0,1.993,3.217h0l.147-.019,3.438-.452-3.689,8.245a1.519,1.519,0,0,0,2.706,1.371l6.406-11.272A2.081,2.081,0,0,0,714.293,390.317Z" transform="translate(-2.846)" fill="#fff" stroke="#07e28e" stroke-miterlimit="10" stroke-width="0.169"/>
  </g>
</svg>
