<svg xmlns="http://www.w3.org/2000/svg" width="20.717" height="21.678" viewBox="0 0 20.717 21.678">
  <g id="gift" transform="translate(-600.641 -523.503)">
    <g id="Group_5766" data-name="Group 5766">
      <path id="Path_24312" data-name="Path 24312" d="M609.495,527.462a1.288,1.288,0,0,1,.338-.857v-.321c-.456-2.5-4.87-4.1-5.672-1.311a2.2,2.2,0,0,0,1.774,2.7h3.56Z" fill="#fde751"/>
      <path id="Path_24313" data-name="Path 24313" d="M612.506,527.669h3.559a2.2,2.2,0,0,0,1.774-2.7c-.8-2.789-5.216-1.189-5.672,1.311v.319a1.29,1.29,0,0,1,.339.859Z" fill="#fde751"/>
      <path id="Path_24314" data-name="Path 24314" d="M600.885,534.055a.821.821,0,0,1-.11-.022v7.91a3.249,3.249,0,0,0,3.255,3.238H608V534.055Z" fill="#07e28e"/>
      <path id="Path_24315" data-name="Path 24315" d="M613.95,534.055v11.126h4.019a3.25,3.25,0,0,0,3.255-3.238v-7.91a.792.792,0,0,1-.11.022Z" fill="#07e28e"/>
      <path id="Path_24316" data-name="Path 24316" d="M609.495,527.669h3.011v-.207a1.341,1.341,0,0,0-1.308-1.308h-.4a1.343,1.343,0,0,0-1.308,1.308Z" fill="#fde751"/>
      <path id="Path_24317" data-name="Path 24317" d="M608,528.308h-4.459a2.9,2.9,0,0,0-2.9,2.887v1.979a.245.245,0,0,0,.244.243H608Z" fill="#07e28e"/>
      <path id="Path_24318" data-name="Path 24318" d="M613.95,533.417h7.164a.244.244,0,0,0,.244-.243V531.2a2.9,2.9,0,0,0-2.9-2.887l0-.005H613.95Z" fill="#07e28e"/>
      <path id="Path_24319" data-name="Path 24319" d="M613.95,533.42v-5.112H608v16.873h5.95V533.42Z" fill="#fff"/>
    </g>
    <path id="Path_24320" data-name="Path 24320" d="M609.339,537.318a.75.75,0,0,0,.5.119l.052-.007,1.228-.162-1.318,2.96a.549.549,0,0,0,.228.7.542.542,0,0,0,.738-.2l2.288-4.047a.755.755,0,0,0-.747-1.118h-.037l-1.179.155,1.234-2.554a.466.466,0,0,0-.157-.589.46.46,0,0,0-.64.123l0,0-2.4,3.581A.747.747,0,0,0,609.339,537.318Z" fill="#ffdf00"/>
  </g>
</svg>
