<svg xmlns="http://www.w3.org/2000/svg" width="10" height="16.001" viewBox="0 0 10 16.001">
  <g id="go" transform="translate(-551.435 -426.5)">
    <path id="Path_16906" data-name="Path 16906" d="M559.009,441.319l-.564-2.82.054-.36-1.26-2.306.652-3.292h0a1.69,1.69,0,0,0,.045-.373,1.667,1.667,0,0,0-1.667-1.667h0a1.659,1.659,0,0,0-1.286.619l-2.084,1a.505.505,0,0,0-.24.245l-1.179,2.6a.5.5,0,0,0,.912.412l.9-1.993,1.07-.322c-.193,1.012-.4,2.108-.4,2.108h0a1.647,1.647,0,0,0,.572,1.609l0,.012,2.6,2.045.8,2.99,0,.011a.667.667,0,0,0,1.334,0A.653.653,0,0,0,559.009,441.319Zm-1,.081.022.114a.671.671,0,0,0-.074.224Z" fill="#6a6a7c"/>
    <path id="Path_16907" data-name="Path 16907" d="M553.563,438.781,552,441.542l.006,0a.649.649,0,0,0-.072.288.667.667,0,0,0,.667.667.654.654,0,0,0,.53-.282l.009.006,2.23-3.383-1.465-1.192Z" fill="#6a6a7c"/>
    <path id="Path_16908" data-name="Path 16908" d="M561.543,434.562l0-.005-1.908-.865-.779-.7-.312,1.51.278.249a.657.657,0,0,0,.169.11l2,.908a.66.66,0,0,0,.946-.6A.665.665,0,0,0,561.543,434.562Z" transform="translate(-0.501)" fill="#6a6a7c"/>
    <circle id="Ellipse_35" data-name="Ellipse 35" cx="1.667" cy="1.667" r="1.667" transform="translate(555.62 426.5)" fill="#6a6a7c"/>
  </g>
</svg>
