<svg xmlns="http://www.w3.org/2000/svg" xmlns:xlink="http://www.w3.org/1999/xlink" width="224.563" height="558.918" viewBox="0 0 224.563 558.918">
  <defs>
    <linearGradient id="linear-gradient" x1="0.5" x2="1.8" y2="1.651" gradientUnits="objectBoundingBox">
      <stop offset="0" stop-color="#fff"/>
      <stop offset="1" stop-color="gray"/>
    </linearGradient>
  </defs>
  <g id="hand2" transform="matrix(0.961, -0.276, 0.276, 0.961, -181.654, -177.95)">
    <g id="Group_829" data-name="Group 829" transform="translate(89.024 248.444)">
      <path id="Path_16753" data-name="Path 16753" d="M13.647,77.388l1.862-56.877.827-4.69C16.336,8.146,13.37,5.8,13.37,5.8l5.85,2.714,7.123,23.55A137.65,137.65,0,0,0,13.647,77.388Z" transform="translate(145.837 170.128) rotate(17)" fill="#ce926a"/>
      <path id="Path_16754" data-name="Path 16754" d="M0,0" transform="translate(74.617 243.031) rotate(17)" fill="none" stroke="#f9cda5" stroke-miterlimit="10" stroke-width="1.037"/>
      <g id="Group_817" data-name="Group 817" transform="translate(180.031 174.562) rotate(17)">
        <path id="Path_16755" data-name="Path 16755" d="M0,0C2.687,5.577,5.1,11.252,7.422,16.964c2.336,5.7,4.511,11.468,6.656,17.242,2.094,5.794,4.151,11.6,6.05,17.467,1.915,5.858,3.733,11.753,5.276,17.748C22.715,63.846,20.3,58.17,17.979,52.459S13.467,40.99,11.326,35.214c-2.089-5.8-4.147-11.6-6.045-17.467S1.548,5.993,0,0Z" fill="#efaf84"/>
      </g>
      <g id="phone" transform="matrix(0.891, 0.454, -0.454, 0.891, -2332.37, 208.918)">
        <path id="Path_16754-2" data-name="Path 16754" d="M0,0" transform="matrix(0.985, -0.174, 0.174, 0.985, 2161.128, -1057.354)" fill="none" stroke="#f9cda5" stroke-miterlimit="10" stroke-width="1.037"/>
        <path id="Subtraction_26" data-name="Subtraction 26" d="M107.924,260.408,12.032,260.4A12.067,12.067,0,0,1,0,248.376L.005,12.043A12.079,12.079,0,0,1,12.043,0H24.694a1.68,1.68,0,0,1,1.658,1.685V2.844a6.713,6.713,0,0,0,6.7,6.685l53.938.005a6.71,6.71,0,0,0,6.7-6.691V1.166a1.686,1.686,0,0,1,1.59-1.16H107.95a12.071,12.071,0,0,1,12.021,12.043l-.01,236.322a12.068,12.068,0,0,1-12.037,12.038Zm-94.859-177v95.465h94.758V83.41Z" transform="matrix(0.985, -0.174, 0.174, 0.985, 2060.302, -1272.667)" fill="rgba(255,255,255,0.44)" stroke="rgba(0,0,0,0)" stroke-width="1"/>
        <g id="Group_1408" data-name="Group 1408" transform="translate(232.932 354.517) rotate(-10)">
          <g id="Group_1405" data-name="Group 1405" transform="translate(2089 -1208.248)">
            <path id="Path_16416" data-name="Path 16416" d="M0,0H19.109V11.591" transform="translate(87.968 0)" fill="none" stroke="#35cdfa" stroke-width="1"/>
            <path id="Path_16417" data-name="Path 16417" d="M19.109,0H0V11.591" transform="translate(0 0)" fill="none" stroke="#35cdfa" stroke-width="1"/>
          </g>
          <g id="Group_1407" data-name="Group 1407" transform="translate(2196.078 -1099.657) rotate(-180)">
            <path id="Path_16416-2" data-name="Path 16416" d="M0,0H19.109V11.591" transform="translate(87.968 0)" fill="none" stroke="#35cdfa" stroke-width="1"/>
            <path id="Path_16417-2" data-name="Path 16417" d="M19.109,0H0V11.591" transform="translate(0 0)" fill="none" stroke="#35cdfa" stroke-width="1"/>
          </g>
        </g>
        <path id="Subtraction_27" data-name="Subtraction 27" d="M60.53,284.117a17.27,17.27,0,0,1-16.938-14.032L2.966,39.649A17.267,17.267,0,0,1,17.2,19.833l95.291-16.8A17.238,17.238,0,0,1,132.633,16.79l40.619,230.422a17.256,17.256,0,0,1-14.027,19.776l-.106.018h-.007l-.087.015-95.291,16.8A17.411,17.411,0,0,1,60.53,284.117ZM31.026,21.959a1.7,1.7,0,0,0-.275.023l-12.4,2.186A12.021,12.021,0,0,0,8.637,38.049l40.832,231.6a12.01,12.01,0,0,0,11.805,9.885,12.156,12.156,0,0,0,2.064-.178l93.971-16.564a12.009,12.009,0,0,0,9.716-13.877L126.2,17.325A12,12,0,0,0,112.339,7.6L99.915,9.792A1.675,1.675,0,0,0,98.557,11.2l.291,1.645a6.677,6.677,0,0,1-5.405,7.713L40.584,29.877a6.754,6.754,0,0,1-1.15.1,6.673,6.673,0,0,1-6.567-5.494l-.2-1.137A1.662,1.662,0,0,0,31.026,21.959Z" transform="translate(2054.142 -1298.466)" fill="#35cdfa" stroke="rgba(0,0,0,0)" stroke-width="1"/>
        <g id="Group_825" data-name="Group 825" transform="matrix(0.985, -0.174, 0.174, 0.985, 2109.486, -1278.276)">
          <g id="Group_824" data-name="Group 824" transform="translate(20.808)">
            <path id="Path_16759" data-name="Path 16759" d="M4.151,2.078A2.076,2.076,0,1,1,2.078,0,2.075,2.075,0,0,1,4.151,2.078Z" fill="#00b1ec"/>
          </g>
          <path id="Path_16760" data-name="Path 16760" d="M15.545,2.308H1.07A1.078,1.078,0,0,1,0,1.237V1.07A1.072,1.072,0,0,1,1.07,0H15.545A1.07,1.07,0,0,1,16.6,1.07h0v.172A1.068,1.068,0,0,1,15.545,2.308Z" transform="translate(0 0.809)" fill="#00b1ec"/>
        </g>
        <rect id="Rectangle_1784" data-name="Rectangle 1784" width="94.759" height="95.464" transform="matrix(0.985, -0.174, 0.174, 0.985, 2087.652, -1192.792)" stroke="rgba(0,0,0,0)" stroke-width="1" opacity="0.195" fill="url(#linear-gradient)"/>
      </g>
      <path id="Path_16761" data-name="Path 16761" d="M86.467,0l17.071,1.183a12.008,12.008,0,0,1,6.751,2.649,12.129,12.129,0,0,1,4.5,10.282c-.028.311-.051.619-.1.915l19.168,63.3s-.192,3.421-.461,9.193c-.013.012-.013.012-.013.025-1.169,22.883-4.063,82.882-4.089,116.706a190.616,190.616,0,0,0,.72,20.749H61.9v-9.541c0-.012-.012-.012-.024-.024a.477.477,0,0,0-.08-.089C47.5,192.261,38.115,164.542,35.107,143.331c-.412-2.726-.683-5.349-.848-7.858a1.951,1.951,0,0,0-.04-.244c-.4-4.139-2.108-14.139-3.342-21.147-.734-4.114-1.3-7.2-1.35-7.455v-.015L5.963,74.473,2.826,70.206A14.587,14.587,0,0,1,26.352,52.953l4.525,6.185,7.8,10.63,3.459,4.7,8.24,11.25,7.828,10.694a.162.162,0,0,1,.051.052c.722.67,10.584,9.5,18.617-3.329.064-1.272.14-2.559.284-3.806,2.467-25.608,18.165-44.7,18.165-44.7L89.23,24.49l-2.756-.19" transform="translate(83.545 137.936) rotate(17)" fill="#ffc799"/>
      <path id="Path_16762" data-name="Path 16762" d="M0,210.071H87.421V4.681C64.794-14.536,0,31.623,0,31.623Z" transform="translate(70.583 343.795) rotate(17)" fill="#35cdfa"/>
      <path id="Path_16763" data-name="Path 16763" d="M87.421,0S67.367,181.281,0,198.6H87.421Z" transform="translate(67.23 354.763) rotate(17)" fill="#35cdfa"/>
    </g>
  </g>
</svg>
