<svg xmlns="http://www.w3.org/2000/svg" xmlns:xlink="http://www.w3.org/1999/xlink" width="74.654" height="60.198" viewBox="0 0 74.654 60.198">
  <defs>
    <linearGradient id="linear-gradient" x1="0.5" x2="0.5" y2="1" gradientUnits="objectBoundingBox">
      <stop offset="0" stop-color="#5ed8fc"/>
      <stop offset="1" stop-color="#35cdfa"/>
    </linearGradient>
    <linearGradient id="linear-gradient-2" x2="0.533" y2="3.323" xlink:href="#linear-gradient"/>
  </defs>
  <g id="happy_nono" data-name="happy nono" transform="translate(1002.388 -4539.302)">
    <g id="Group_5791" data-name="Group 5791">
      <g id="Group_5790" data-name="Group 5790">
        <path id="Path_16966" data-name="Path 16966" d="M68.271,22.308l-.061-.037-1.441-.858.205,6.535a.735.735,0,0,1-1.465.093l-.832-8.4a1.009,1.009,0,0,1,1.521-.978h0l.042.024,1.382.822-.5-6.636a.626.626,0,0,1,1.24-.144l1.411,8.534a1.007,1.007,0,0,1-1.5,1.047Z" transform="translate(-1055.671 4541.147)" fill="#ffdf00"/>
        <path id="Path_16967" data-name="Path 16967" d="M84.472,21.261l1.411-8.534a.626.626,0,0,1,1.24.144l-.5,6.636L88,18.685l.042-.024h0a1.007,1.007,0,0,1,1.384.352.988.988,0,0,1,.137.626l-.834,8.4a.734.734,0,0,1-1.463-.093l.2-6.535-1.438.858-.064.037h0a1.006,1.006,0,0,1-1.5-1.047Z" transform="translate(-1027.847 4541.147)" fill="#ffdf00"/>
      </g>
      <g id="Group_5789" data-name="Group 5789">
        <path id="Union_31" data-name="Union 31" d="M36.115,51.8H14.007a9.92,9.92,0,0,1-9.65-7.636,2.536,2.536,0,0,1-.381.027,2.828,2.828,0,0,1-2.914-2.736L0,30.019a2.833,2.833,0,0,1,2.914-2.738,4.814,4.814,0,0,1,1.678.347A20.547,20.547,0,0,1,23.818,11.659a26.158,26.158,0,0,0,.2-5.438,3.205,3.205,0,1,1,2.056,0,25.973,25.973,0,0,0,.2,5.438A20.545,20.545,0,0,1,45.524,27.591a4.722,4.722,0,0,1,1.578-.311,2.832,2.832,0,0,1,2.914,2.738l-1.062,11.44a2.826,2.826,0,0,1-2.914,2.736,2.493,2.493,0,0,1-.272-.02A9.923,9.923,0,0,1,36.117,51.8ZM8.162,40.017v.424a7.612,7.612,0,0,0,7.832,7.354h17.98A7.611,7.611,0,0,0,41.8,40.441v-.424c0-8.085-7-14.664-15.613-14.664H23.774C15.165,25.353,8.162,31.934,8.162,40.017ZM35.7,38.855A1.252,1.252,0,0,1,34.453,37.6l.017-.418c0-.856-1.135-1.607-2.426-1.607s-2.431.751-2.431,1.607L29.6,37.6a1.255,1.255,0,0,1-2.509,0l.017-.421c0-2.267,2.216-4.111,4.936-4.111s4.934,1.844,4.934,4.111l-.017.421A1.253,1.253,0,0,1,35.7,38.857ZM20.71,37.6l.017-.418c0-.856-1.135-1.607-2.426-1.607s-2.431.751-2.431,1.607l-.017.418a1.254,1.254,0,0,1-2.507,0l.02-.418c0-2.269,2.214-4.114,4.934-4.114s4.933,1.845,4.933,4.114l-.017.418a1.252,1.252,0,1,1-2.5,0Z" transform="translate(-989.626 4547.197)" stroke="rgba(0,0,0,0)" stroke-width="1" fill="url(#linear-gradient)"/>
        <path id="icons8-like" d="M6,4A2.987,2.987,0,0,0,3,6.975c0,2.86,3.345,5.593,4.908,6.81l0,0,.036.028h0a.918.918,0,0,0,1.1,0h0l.011-.008L9.07,13.8l.009-.008C10.637,12.582,14,9.842,14,6.975A2.987,2.987,0,0,0,11,4,3.272,3.272,0,0,0,8.5,5.364,3.272,3.272,0,0,0,6,4Z" transform="translate(-973 4541)" fill="url(#linear-gradient-2)"/>
      </g>
    </g>
    <path id="icons8-like-2" data-name="icons8-like" d="M1.912,0A1.911,1.911,0,0,0,0,1.912C0,3.749,2.132,5.506,3.128,6.288l0,0,.023.018h0a.581.581,0,0,0,.7,0h0L3.863,6.3l.005,0,.006-.005c.993-.779,3.136-2.54,3.136-4.382A1.911,1.911,0,0,0,5.1,0,2.083,2.083,0,0,0,3.5.876,2.083,2.083,0,0,0,1.912,0Z" transform="translate(-1002.388 4568.863) rotate(-14)" fill="#fd4b5f"/>
    <path id="icons8-like-3" data-name="icons8-like" d="M1.174,0A1.174,1.174,0,0,0,0,1.174C0,2.3,1.31,3.382,1.922,3.863h0l.014.011h0a.357.357,0,0,0,.431,0h0l0,0,0,0,0,0c.61-.479,1.927-1.561,1.927-2.692A1.174,1.174,0,0,0,3.132,0a1.28,1.28,0,0,0-.979.538A1.28,1.28,0,0,0,1.174,0Z" transform="matrix(0.934, 0.358, -0.358, 0.934, -978.852, 4539.302)" fill="#fd4b5f"/>
    <path id="icons8-like-4" data-name="icons8-like" d="M1.174,0A1.174,1.174,0,0,0,0,1.174C0,2.3,1.31,3.382,1.922,3.863h0l.014.011h0a.357.357,0,0,0,.431,0h0l0,0,0,0,0,0c.61-.479,1.927-1.561,1.927-2.692A1.174,1.174,0,0,0,3.132,0a1.28,1.28,0,0,0-.979.538A1.28,1.28,0,0,0,1.174,0Z" transform="translate(-934.567 4576.248) rotate(-14)" fill="#fd4b5f"/>
    <path id="icons8-like-5" data-name="icons8-like" d="M1.968,0A1.968,1.968,0,0,0,0,1.968c0,1.892,2.194,3.7,3.22,4.5l0,0,.023.019h0a.6.6,0,0,0,.723,0h0l.007-.005.005,0,.006-.005c1.022-.8,3.228-2.615,3.228-4.511A1.968,1.968,0,0,0,5.248,0a2.144,2.144,0,0,0-1.64.9A2.144,2.144,0,0,0,1.968,0Z" transform="matrix(0.978, 0.208, -0.208, 0.978, -934.792, 4547.791)" fill="#fd4b5f"/>
  </g>
</svg>
