<svg xmlns="http://www.w3.org/2000/svg" width="20" height="20" viewBox="0 0 20 20">
  <path id="help" d="M12,2A10,10,0,1,0,22,12,10.011,10.011,0,0,0,12,2Zm.781,15.189a.147.147,0,0,1-.156.156H11.44a.147.147,0,0,1-.156-.156V15.848a.147.147,0,0,1,.156-.156h1.185a.147.147,0,0,1,.156.156Zm1.372-5.942-1.045,1.435a1.607,1.607,0,0,0-.406,1.169v.5a.147.147,0,0,1-.156.156H11.518a.145.145,0,0,1-.156-.154v-.639a2.067,2.067,0,0,1,.467-1.4l1.045-1.435a2.623,2.623,0,0,0,.732-1.637,1.4,1.4,0,0,0-1.513-1.45,1.6,1.6,0,0,0-1.621,1.481.137.137,0,0,1-.172.125L9.319,9.22a.137.137,0,0,1-.125-.172,2.792,2.792,0,0,1,2.932-2.48A2.619,2.619,0,0,1,14.948,9.22,3.246,3.246,0,0,1,14.153,11.247Z" transform="translate(-2 -2)" fill="#6a6a7c"/>
</svg>
