<svg xmlns="http://www.w3.org/2000/svg" xmlns:xlink="http://www.w3.org/1999/xlink" width="52.726" height="52.803" viewBox="0 0 52.726 52.803">
  <defs>
    <linearGradient id="linear-gradient" x1="0.5" x2="0.5" y2="1" gradientUnits="objectBoundingBox">
      <stop offset="0" stop-color="#5ed8fc"/>
      <stop offset="1" stop-color="#35cdfa"/>
    </linearGradient>
  </defs>
  <g id="logo-color" transform="translate(1099 -4555.697)">
    <path id="Union_30" data-name="Union 30" d="M1135.114-4504.395h-22.108a9.921,9.921,0,0,1-9.651-7.635,2.567,2.567,0,0,1-.38.026,2.828,2.828,0,0,1-2.915-2.736L1099-4526.178a2.835,2.835,0,0,1,2.915-2.739,4.84,4.84,0,0,1,1.679.347,20.545,20.545,0,0,1,19.225-15.968,26.133,26.133,0,0,0,.2-5.438,3.191,3.191,0,0,1-2.177-3.02,3.2,3.2,0,0,1,3.205-3.2,3.205,3.205,0,0,1,3.206,3.2,3.194,3.194,0,0,1-2.177,3.02,25.974,25.974,0,0,0,.194,5.438,20.545,20.545,0,0,1,19.257,15.932,4.749,4.749,0,0,1,1.578-.31,2.832,2.832,0,0,1,2.913,2.739l-1.062,11.439a2.825,2.825,0,0,1-2.913,2.736,2.685,2.685,0,0,1-.272-.02,9.923,9.923,0,0,1-9.651,7.628Zm-27.953-11.785v.423a7.611,7.611,0,0,0,7.832,7.354h17.981a7.611,7.611,0,0,0,7.829-7.354v-.423c0-8.085-7-14.665-15.613-14.665h-2.416C1114.165-4530.845,1107.161-4524.263,1107.161-4516.18Zm27.544-1.163a1.251,1.251,0,0,1-1.252-1.252l.017-.418c0-.855-1.135-1.607-2.426-1.607s-2.431.751-2.431,1.607l-.015.42a1.256,1.256,0,0,1-1.255,1.252,1.255,1.255,0,0,1-1.254-1.252l.017-.42c0-2.268,2.216-4.112,4.936-4.112s4.933,1.845,4.933,4.112l-.017.42a1.254,1.254,0,0,1-1.252,1.252Zm-15-1.252.017-.418c0-.856-1.134-1.607-2.426-1.607s-2.431.75-2.431,1.607l-.017.418a1.252,1.252,0,0,1-1.252,1.252,1.255,1.255,0,0,1-1.254-1.252l.019-.418c0-2.27,2.214-4.114,4.933-4.114s4.933,1.844,4.933,4.114l-.016.418a1.252,1.252,0,0,1-1.253,1.252A1.252,1.252,0,0,1,1119.71-4518.595Z" transform="translate(-2196.626 9112.395)" stroke="rgba(0,0,0,0)" stroke-width="1" fill="url(#linear-gradient)"/>
    <path id="Path_25793" data-name="Path 25793" d="M68.271,22.308l-.061-.037-1.441-.858.205,6.535a.735.735,0,0,1-1.465.093l-.832-8.4a1.009,1.009,0,0,1,1.521-.978h0l.042.024,1.382.822-.5-6.636a.626.626,0,0,1,1.24-.144l1.411,8.534a1.007,1.007,0,0,1-1.5,1.047Z" transform="translate(-1163.671 4550.147)" fill="#ffdf00"/>
    <path id="Path_25794" data-name="Path 25794" d="M84.472,21.261l1.411-8.534a.626.626,0,0,1,1.24.144l-.5,6.636L88,18.685l.042-.024h0a1.007,1.007,0,0,1,1.384.352.988.988,0,0,1,.137.626l-.834,8.4a.734.734,0,0,1-1.463-.093l.2-6.535-1.438.858-.064.037h0a1.006,1.006,0,0,1-1.5-1.047Z" transform="translate(-1135.847 4550.147)" fill="#ffdf00"/>
  </g>
</svg>
