<svg xmlns="http://www.w3.org/2000/svg" width="100.148" height="108.863" viewBox="0 0 100.148 108.863">
  <g id="logo-nono" transform="translate(-315.88 -82.923)">
    <g id="Group_5754" data-name="Group 5754" transform="translate(327.552 82.923)">
      <g id="Group_5753" data-name="Group 5753" transform="translate(1.974)">
        <path id="Path_24298" data-name="Path 24298" d="M413.176,122.728a6.9,6.9,0,0,0-2.3.451A29.959,29.959,0,0,0,382.8,99.934,38.064,38.064,0,0,1,382.517,92a4.674,4.674,0,1,0-3,0,38.147,38.147,0,0,1-.288,7.935,29.961,29.961,0,0,0-28.03,23.3,6.987,6.987,0,0,0-2.444-.506,4.127,4.127,0,0,0-4.248,3.993l1.545,16.692a4.238,4.238,0,0,0,4.805,3.954,14.466,14.466,0,0,0,14.066,11.14h32.235a14.466,14.466,0,0,0,14.067-11.13c.133.009.264.032.4.029a4.127,4.127,0,0,0,4.248-3.993l1.546-16.692A4.127,4.127,0,0,0,413.176,122.728Zm-7.723,19.2c0,5.917-5.12,10.73-11.415,10.73H367.824c-6.3,0-11.416-4.814-11.416-10.73v-.618c0-11.794,10.209-21.394,22.76-21.394h3.525c12.55,0,22.76,9.6,22.76,21.394Z" transform="translate(-344.511 -82.923)" fill="#fff"/>
        <path id="Path_24299" data-name="Path 24299" d="M434.765,184.374c-3.9,0-7.086,2.648-7.086,5.9l-.024.6a1.8,1.8,0,0,0,3.6,0l.023-.6c0-1.23,1.634-2.308,3.488-2.308s3.483,1.078,3.483,2.306l-.025.6a1.8,1.8,0,0,0,1.8,1.8l0,0a1.8,1.8,0,0,0,1.8-1.8l.024-.6C441.847,187.022,438.669,184.374,434.765,184.374Z" transform="translate(-388.028 -136.022)" fill="#fff"/>
        <path id="Path_24300" data-name="Path 24300" d="M392.619,184.371c-3.9,0-7.083,2.648-7.083,5.9l-.026.6a1.8,1.8,0,0,0,3.6,0l.023-.6c0-1.228,1.634-2.306,3.489-2.306s3.483,1.078,3.483,2.306l-.024.6a1.8,1.8,0,0,0,1.8,1.8h0a1.8,1.8,0,0,0,1.8-1.8l.025-.6C399.7,187.019,396.524,184.371,392.619,184.371Z" transform="translate(-365.97 -136.02)" fill="#fff"/>
      </g>
      <path id="Path_24301" data-name="Path 24301" d="M345.538,115.982l-.089-.053-2.068-1.232.294,9.383a1.054,1.054,0,0,1-2.1.13l-1.195-12.057a1.435,1.435,0,0,1,.194-.9,1.451,1.451,0,0,1,1.988-.505h0l.061.036,1.985,1.181-.721-9.527a.9.9,0,0,1,1.781-.208l2.025,12.25a1.444,1.444,0,0,1-2.153,1.5Z" transform="translate(-340.37 -92.645)" fill="#ffdf00"/>
      <path id="Path_24302" data-name="Path 24302" d="M486.134,114.479l2.025-12.25a.9.9,0,0,1,1.781.208l-.721,9.527,1.985-1.181.06-.036h0a1.449,1.449,0,0,1,2.181,1.406l-1.2,12.057a1.054,1.054,0,0,1-2.1-.13l.294-9.383-2.067,1.232-.089.053h0a1.443,1.443,0,0,1-2.152-1.5Z" transform="translate(-416.65 -92.645)" fill="#ffdf00"/>
    </g>
    <g id="Group_5755" data-name="Group 5755" transform="translate(315.88 170.825)">
      <path id="Path_24303" data-name="Path 24303" d="M442.871,269.011a10.06,10.06,0,0,0-2.575-1.195,11.762,11.762,0,0,0-2.909-.458,10.361,10.361,0,0,0-5.133,1.424,10.722,10.722,0,0,0-3.711,3.576,11.276,11.276,0,0,0-1.187,2.606,10.085,10.085,0,0,0-.414,2.9v7.61a2.538,2.538,0,0,0,.837,1.975,2.694,2.694,0,0,0,2.054.874,2.54,2.54,0,0,0,1.975-.837,2.58,2.58,0,0,0,.874-2.012v-8a3.917,3.917,0,0,1,1.434-2.9A5.07,5.07,0,0,1,437.4,273.1a4.556,4.556,0,0,1,3.312,1.493,4.181,4.181,0,0,1,1.45,2.877v8a2.723,2.723,0,0,0,.811,1.994,2.854,2.854,0,0,0,4.074,0,2.726,2.726,0,0,0,.811-1.994v-7.7a9.871,9.871,0,0,0-1.342-5.068A10.859,10.859,0,0,0,442.871,269.011Z" transform="translate(-374.009 -267.358)" fill="#fff"/>
      <path id="Path_24304" data-name="Path 24304" d="M331.809,269.011a10.022,10.022,0,0,0-2.575-1.195,11.774,11.774,0,0,0-2.909-.458,10.358,10.358,0,0,0-5.133,1.424,10.716,10.716,0,0,0-3.71,3.576,11.2,11.2,0,0,0-1.187,2.606,10.07,10.07,0,0,0-.415,2.9v7.61a2.538,2.538,0,0,0,.837,1.975,2.694,2.694,0,0,0,2.055.874,2.539,2.539,0,0,0,1.974-.837,2.578,2.578,0,0,0,.873-2.012v-8a3.917,3.917,0,0,1,1.434-2.9,5.072,5.072,0,0,1,3.285-1.465,4.555,4.555,0,0,1,3.312,1.493,4.179,4.179,0,0,1,1.45,2.877v8a2.723,2.723,0,0,0,.812,1.994,2.853,2.853,0,0,0,4.073,0,2.723,2.723,0,0,0,.812-1.994v-7.7a9.872,9.872,0,0,0-1.343-5.068A10.85,10.85,0,0,0,331.809,269.011Z" transform="translate(-315.88 -267.358)" fill="#fff"/>
      <path id="Path_24305" data-name="Path 24305" d="M381.893,267.358a10.48,10.48,0,1,0,10.48,10.48A10.491,10.491,0,0,0,381.893,267.358Zm0,15.742a5.261,5.261,0,1,1,5.261-5.261A5.267,5.267,0,0,1,381.893,283.1Z" transform="translate(-344.946 -267.358)" fill="#fff"/>
      <path id="Path_24306" data-name="Path 24306" d="M492.512,267.358a10.48,10.48,0,1,0,10.48,10.48A10.492,10.492,0,0,0,492.512,267.358Zm5.261,10.48a5.261,5.261,0,1,1-5.261-5.261A5.267,5.267,0,0,1,497.773,277.839Z" transform="translate(-402.843 -267.358)" fill="#fff"/>
    </g>
  </g>
</svg>
