<svg xmlns="http://www.w3.org/2000/svg" width="16.111" height="16.111" viewBox="0 0 16.111 16.111">
  <path id="lydia" d="M8.056,16.111a8.055,8.055,0,1,1,8.055-8.055A8.065,8.065,0,0,1,8.056,16.111ZM8.062,5.72v0l.045.1.029.065L8.684,7.21c.507,1.224,1.031,2.491,1.554,3.734.044.105.078.193.108.27.151.39.163.422.619.422h.316c.2,0,.293-.026.333-.087s.023-.163-.059-.351l-.967-2.222Q9.768,7.09,8.948,5.206l-.072-.167c-.24-.56-.24-.56-.78-.561l-.246,0H7.835a.482.482,0,0,0-.487.335c-.176.412-.359.829-.536,1.232l0,.01-.236.539L5.748,8.473l-.025.056q-.6,1.367-1.195,2.734c-.058.133-.068.221-.033.277s.116.084.257.09l.122,0h.261c.047,0,.094,0,.142,0H5.3a.449.449,0,0,0,.448-.333c.33-.814.673-1.639,1-2.436l.007-.017.388-.935.289-.7,0-.011.617-1.485Z" fill="#6a6a7c"/>
</svg>
