<svg xmlns="http://www.w3.org/2000/svg" xmlns:xlink="http://www.w3.org/1999/xlink" width="36" height="36" viewBox="0 0 36 36">
  <defs>
    <linearGradient id="linear-gradient" x1="0.5" y1="1" x2="0.5" gradientUnits="objectBoundingBox">
      <stop offset="0" stop-color="#ff3d00"/>
      <stop offset="1" stop-color="#ffc107"/>
    </linearGradient>
  </defs>
  <g id="mastercard-add" transform="translate(-20 -252)">
    <rect id="Rectangle_2524" data-name="Rectangle 2524" width="36" height="36" rx="14" transform="translate(20 252)" fill="url(#linear-gradient)"/>
    <circle id="Ellipse_2631" data-name="Ellipse 2631" cx="6.5" cy="6.5" r="6.5" transform="translate(35.53 264)" fill="#fff" opacity="0.3"/>
    <path id="Path_25805" data-name="Path 25805" d="M16.759,24.4a6.489,6.489,0,0,1-.764-1.3h3.461a6.435,6.435,0,0,0,.414-1.3H15.581a6.484,6.484,0,0,1-.131-1.3H20a6.532,6.532,0,0,0-.131-1.3H15.581a6.477,6.477,0,0,1,.414-1.3h3.461a6.458,6.458,0,0,0-.764-1.3H16.759a6.584,6.584,0,0,1,.963-1.037,6.5,6.5,0,1,0,.969,8.837Z" transform="translate(20 250)" fill="#fff"/>
  </g>
</svg>
