<svg xmlns="http://www.w3.org/2000/svg" width="18.001" height="17.71" viewBox="0 0 18.001 17.71">
  <path id="nono-white" d="M4.958,16.71a3.2,3.2,0,0,1-3.113-2.462.792.792,0,0,1-.122.008.912.912,0,0,1-.94-.882L.44,9.683A.913.913,0,0,1,1.38,8.8a1.567,1.567,0,0,1,.542.112,6.627,6.627,0,0,1,6.2-5.151,8.474,8.474,0,0,0,.064-1.755,1.034,1.034,0,1,1,.663,0,8.35,8.35,0,0,0,.062,1.755A6.627,6.627,0,0,1,15.124,8.9a1.515,1.515,0,0,1,.509-.1.912.912,0,0,1,.94.883l-.342,3.691a.913.913,0,0,1-.94.882.725.725,0,0,1-.087-.006,3.2,3.2,0,0,1-3.113,2.461Zm-1.886-3.8v.137A2.455,2.455,0,0,0,5.6,15.417h5.8a2.454,2.454,0,0,0,2.525-2.372v-.137a4.9,4.9,0,0,0-5.036-4.73H8.108A4.9,4.9,0,0,0,3.073,12.909Zm8.878-.379a.4.4,0,0,1-.4-.4L11.555,12c0-.274-.364-.515-.778-.515S10,11.721,10,12l0,.134a.4.4,0,0,1-.8,0L9.2,12a1.468,1.468,0,0,1,1.58-1.317A1.468,1.468,0,0,1,12.357,12l-.005.134a.4.4,0,0,1-.4.4Zm-4.838-.4L7.117,12c0-.274-.364-.515-.777-.515s-.779.24-.779.515l-.005.134a.4.4,0,0,1-.8,0L4.759,12a1.468,1.468,0,0,1,1.58-1.318A1.468,1.468,0,0,1,7.919,12l-.005.134a.4.4,0,0,1-.8,0Zm9.36-4.879a.237.237,0,0,1-.21-.237l.066-2.093-.461.275-.021.012a.322.322,0,0,1-.48-.336l.452-2.733a.2.2,0,0,1,.4.047l-.16,2.125.443-.263.013-.008A.324.324,0,0,1,17,4.352l-.267,2.691a.236.236,0,0,1-.234.208ZM.268,7.043,0,4.352A.323.323,0,0,1,.49,4.039L.5,4.047l.443.263L.785,2.185a.2.2,0,0,1,.4-.047l.452,2.733a.322.322,0,0,1-.481.336L1.133,5.2.671,4.92.738,7.014a.237.237,0,0,1-.211.237H.5A.236.236,0,0,1,.268,7.043Z" transform="translate(0.5 0.5)" fill="#fff" stroke="rgba(0,0,0,0)" stroke-width="1"/>
</svg>
