<svg xmlns="http://www.w3.org/2000/svg" xmlns:xlink="http://www.w3.org/1999/xlink" width="51" height="52.838" viewBox="0 0 51 52.838">
  <defs>
    <linearGradient id="linear-gradient" y1="0.5" x2="1" y2="0.5" gradientUnits="objectBoundingBox">
      <stop offset="0" stop-color="#5ed8fc"/>
      <stop offset="1" stop-color="#35cdfa"/>
    </linearGradient>
  </defs>
  <g id="nono.sad" transform="translate(-692.371 -471.476)">
    <path id="Path_24141" data-name="Path 24141" d="M740.4,499.313a4.85,4.85,0,0,0-1.611.316,20.949,20.949,0,0,0-19.634-16.244,26.522,26.522,0,0,1-.2-5.545,3.268,3.268,0,1,0-2.1,0,26.664,26.664,0,0,1-.2,5.545,20.949,20.949,0,0,0-19.6,16.28,4.918,4.918,0,0,0-1.712-.353,2.889,2.889,0,0,0-2.971,2.792l1.083,11.663a2.883,2.883,0,0,0,2.971,2.789,2.5,2.5,0,0,0,.388-.027,10.116,10.116,0,0,0,9.84,7.785H729.2a10.118,10.118,0,0,0,9.84-7.777,2.578,2.578,0,0,0,.278.019,2.881,2.881,0,0,0,2.971-2.787v0l1.083-11.663A2.887,2.887,0,0,0,740.4,499.313ZM735,512.731a7.76,7.76,0,0,1-7.983,7.5H708.683a7.761,7.761,0,0,1-7.985-7.5V512.3c0-8.241,7.141-14.95,15.92-14.95h2.463c8.78,0,15.92,6.707,15.92,14.95Z" fill="url(#linear-gradient)"/>
    <path id="Path_24142" data-name="Path 24142" d="M717.461,513.886a6.969,6.969,0,0,0-4.639,2.479,1,1,0,0,0,1.571,1.238,5.007,5.007,0,0,1,3.185-1.721,5.064,5.064,0,0,1,3.807,1.809,1,1,0,0,0,1.414-1.414A6.946,6.946,0,0,0,717.461,513.886Z" transform="translate(0.174 0.358)" fill="url(#linear-gradient)"/>
    <circle id="Ellipse_2058" data-name="Ellipse 2058" cx="2.613" cy="2.613" r="2.613" transform="translate(706.525 505.734)" fill="url(#linear-gradient)"/>
    <circle id="Ellipse_2059" data-name="Ellipse 2059" cx="2.613" cy="2.613" r="2.613" transform="translate(724.599 505.734)" fill="url(#linear-gradient)"/>
  </g>
</svg>
