<svg xmlns="http://www.w3.org/2000/svg" xmlns:xlink="http://www.w3.org/1999/xlink" width="35" height="40" viewBox="0 0 35 40">
  <defs>
    <clipPath id="clip-path">
      <rect width="35" height="40" fill="none"/>
    </clipPath>
  </defs>
  <g id="pin-close" clip-path="url(#clip-path)">
    <g id="Group_459" data-name="Group 459" transform="translate(3 2)">
      <rect id="Rectangle_173" data-name="Rectangle 173" width="29" height="28.7" rx="12" fill="#bfbfc4"/>
    </g>
    <path id="Path_17028" data-name="Path 17028" d="M1.982,4.82a2.5,2.5,0,0,1,4.466,0h0A2.5,2.5,0,0,1,4.215,8.438h0A2.5,2.5,0,0,1,1.982,4.82Z" transform="translate(21.715 43.438) rotate(180)" fill="#bfbfc4"/>
    <g id="Group_1040" data-name="Group 1040" transform="translate(-55.672 -1.696)">
      <g id="Group_1027" data-name="Group 1027" transform="translate(64.672 9.696)">
        <path id="Path_16963" data-name="Path 16963" d="M80.425,18.5a1.527,1.527,0,0,0-.509.1,6.627,6.627,0,0,0-6.211-5.139,8.385,8.385,0,0,1-.063-1.754,1.034,1.034,0,1,0-.663,0,8.439,8.439,0,0,1-.064,1.754,6.627,6.627,0,0,0-6.2,5.151,1.556,1.556,0,0,0-.541-.112.914.914,0,0,0-.94.883l.343,3.69a.912.912,0,0,0,.94.883.8.8,0,0,0,.123-.009,3.2,3.2,0,0,0,3.113,2.463h7.132a3.2,3.2,0,0,0,3.113-2.461.834.834,0,0,0,.088.006.911.911,0,0,0,.94-.883l.343-3.69A.913.913,0,0,0,80.425,18.5Zm-1.709,4.245a2.455,2.455,0,0,1-2.525,2.372h-5.8a2.455,2.455,0,0,1-2.526-2.372V22.6a4.9,4.9,0,0,1,5.036-4.73h.779a4.9,4.9,0,0,1,5.036,4.73Z" transform="translate(-64.793 -9.696)" fill="#fff"/>
        <path id="Path_16964" data-name="Path 16964" d="M78.106,23.468a1.469,1.469,0,0,0-1.581,1.317l-.005.135a.4.4,0,0,0,.8,0l0-.135c0-.274.365-.515.779-.515s.777.24.777.515l-.005.134a.4.4,0,0,0,.4.4h0a.4.4,0,0,0,.4-.4l.005-.135A1.468,1.468,0,0,0,78.106,23.468Z" transform="translate(-67.329 -12.79)" fill="#fff"/>
        <path id="Path_16965" data-name="Path 16965" d="M72.385,23.467a1.468,1.468,0,0,0-1.58,1.318l-.006.134a.4.4,0,0,0,.8,0l.005-.134c0-.274.365-.515.779-.515s.777.24.777.515l-.005.134a.4.4,0,0,0,.4.4h0a.4.4,0,0,0,.4-.4l.005-.134A1.468,1.468,0,0,0,72.385,23.467Z" transform="translate(-66.046 -12.79)" fill="#fff"/>
        <path id="Path_16966" data-name="Path 16966" d="M65.824,15.449l-.02-.012-.461-.275.066,2.093a.235.235,0,0,1-.469.03l-.266-2.691a.323.323,0,0,1,.487-.313h0l.013.008.443.263-.161-2.125a.2.2,0,0,1,.4-.046l.452,2.733a.322.322,0,0,1-.481.335Z" transform="translate(-64.671 -10.242)" fill="#fff"/>
        <path id="Path_16967" data-name="Path 16967" d="M84.461,15.114l.452-2.733a.2.2,0,0,1,.4.046l-.161,2.125.443-.263.013-.008h0a.322.322,0,0,1,.443.113.316.316,0,0,1,.044.2l-.267,2.691a.235.235,0,0,1-.468-.03l.065-2.093-.461.275-.02.012h0a.322.322,0,0,1-.48-.335Z" transform="translate(-69.094 -10.242)" fill="#fff"/>
      </g>
    </g>
  </g>
</svg>
