<svg xmlns="http://www.w3.org/2000/svg" xmlns:xlink="http://www.w3.org/1999/xlink" width="59" height="60" viewBox="0 0 59 60">
  <defs>
    <linearGradient id="linear-gradient" x1="0.5" x2="0.5" y2="1" gradientUnits="objectBoundingBox">
      <stop offset="0" stop-color="#07e28e"/>
      <stop offset="1" stop-color="#36f7ad"/>
    </linearGradient>
  </defs>
  <g id="plant" transform="translate(-5 -5)">
    <path id="Path_24284" data-name="Path 24284" d="M39.707,29.291,19.2,41.409l4.816,6.214L43.591,35.816a3.8,3.8,0,0,0-3.884-6.525" transform="translate(7.824 12.657)" fill="#e39d36"/>
    <path id="Path_24285" data-name="Path 24285" d="M40.316,17.739C37.831,10.438,26.49,6.088,23.693,5c1.243,4.505-7.457,13.671-3.884,20.507,2.486,4.816,7.146,6.214,12.429,1.243A6.715,6.715,0,0,0,40.316,17.739Z" transform="translate(7.686)" fill="url(#linear-gradient)"/>
    <path id="Path_24286" data-name="Path 24286" d="M29.3,34h0a1.6,1.6,0,0,1-1.554-1.709c0-.155.777-12.273-4.505-18.177a1.542,1.542,0,0,1,2.33-2.02c6.059,6.991,5.282,19.886,5.282,20.507A1.533,1.533,0,0,1,29.3,34Z" transform="translate(9.849 3.491)" fill="#07e28e"/>
    <path id="Path_24287" data-name="Path 24287" d="M19.914,25.507C16.34,18.671,24.885,9.505,23.642,5c2.33,2.641,5.438,8.545,8.545,21.75h0C26.9,31.721,22.4,30.323,19.914,25.507Z" transform="translate(7.743)" fill="#07e28e"/>
    <path id="Path_24288" data-name="Path 24288" d="M30.321,28.661A4.661,4.661,0,1,1,25.661,24,4.578,4.578,0,0,1,30.321,28.661Z" transform="translate(8.83 10.233)" fill="#795548"/>
    <path id="Path_24289" data-name="Path 24289" d="M36.321,33.661A4.661,4.661,0,1,1,31.661,29,4.578,4.578,0,0,1,36.321,33.661Z" transform="translate(12.141 12.926)" fill="#795548"/>
    <path id="Path_24290" data-name="Path 24290" d="M33.875,30.661c0-2.641-2.486-4.661-5.438-4.661S23,28.02,23,30.661s2.486,4.661,5.438,4.661S33.875,33.3,33.875,30.661Z" transform="translate(9.933 11.31)" fill="#795548"/>
    <path id="Path_24291" data-name="Path 24291" d="M26.321,29.661A4.661,4.661,0,1,1,21.661,25,4.578,4.578,0,0,1,26.321,29.661Z" transform="translate(6.623 10.772)" fill="#795548"/>
    <path id="Path_24292" data-name="Path 24292" d="M33.768,27.884A3.884,3.884,0,1,1,29.884,24,3.846,3.846,0,0,1,33.768,27.884Z" transform="translate(11.591 10.242)" fill="#795548"/>
    <path id="Path_24293" data-name="Path 24293" d="M38.214,31.107A3.107,3.107,0,1,1,35.107,28,3.116,3.116,0,0,1,38.214,31.107Z" transform="translate(14.903 12.407)" fill="#795548"/>
    <path id="Path_24294" data-name="Path 24294" d="M36.768,28.884A3.884,3.884,0,1,1,32.884,25,3.846,3.846,0,0,1,36.768,28.884Z" transform="translate(13.246 10.781)" fill="#795548"/>
    <path id="Path_24295" data-name="Path 24295" d="M57.618,34.3,38.371,45.644h0l-9.158-5.282,4.5,2.486a4.942,4.942,0,0,0,6.053-.932,4.742,4.742,0,0,0-1.242-7.3L19.28,24.049a6.244,6.244,0,0,0-5.743,0L5,29.176V45.955l6.209-4.039L34.646,54.655a6.126,6.126,0,0,0,5.9-.155L61.964,41.6a4.109,4.109,0,0,0,1.4-5.748A4.246,4.246,0,0,0,57.618,34.3" transform="translate(0 9.665)" fill="#ffc799"/>
    <path id="Path_24296" data-name="Path 24296" d="M29.271,38.764a4.767,4.767,0,0,1-4.661,1.554l-.311.155,3.418,2.02L46.982,31.151A.571.571,0,0,1,47.448,31a3.551,3.551,0,0,0-4.971-1.088L30.359,37.055C30.048,37.521,29.738,38.142,29.271,38.764Z" transform="translate(10.63 13.071)" fill="#ffbb83"/>
    <path id="Path_24297" data-name="Path 24297" d="M33.143,41.62h0l-2.02-1.4L14.5,30.9,26.929,41.154a5.665,5.665,0,0,0,6.214.466" transform="translate(5.239 13.844)" fill="#ffbb83"/>
  </g>
</svg>
