<svg xmlns="http://www.w3.org/2000/svg" width="19" height="19" viewBox="0 0 19 19">
  <path id="position" d="M8.1,17.1V15.3c0-.021,0-.042,0-.063A6.315,6.315,0,0,1,2.765,9.9L2.7,9.9H.9a.9.9,0,1,1,0-1.8H2.7l.064,0A6.314,6.314,0,0,1,8.1,2.765c0-.021,0-.042,0-.064V.9A.9.9,0,1,1,9.9.9V2.7c0,.022,0,.043,0,.064A6.315,6.315,0,0,1,15.238,8.1l.063,0h1.8a.9.9,0,1,1,0,1.8H15.3l-.063,0A6.316,6.316,0,0,1,9.9,15.238c0,.021,0,.042,0,.063v1.8a.9.9,0,1,1-1.8,0ZM4.5,9A4.5,4.5,0,1,0,9,4.5,4.505,4.505,0,0,0,4.5,9ZM7.2,9A1.8,1.8,0,1,1,9,10.8,1.8,1.8,0,0,1,7.2,9Z" transform="translate(0.499 0.499)" fill="#6a6a7c" stroke="rgba(0,0,0,0)" stroke-width="1"/>
</svg>
