<svg id="profile" xmlns="http://www.w3.org/2000/svg" width="16" height="18" viewBox="0 0 16 18">
  <g id="Group_123" data-name="Group 123">
    <g id="Group_122" data-name="Group 122">
      <path id="Path_86" data-name="Path 86" d="M29.9,35.882a.357.357,0,0,1-.265.118H14.364a.358.358,0,0,1-.265-.118A.377.377,0,0,1,14,35.6c.155-2.711,2.129-3.3,3.716-3.772.98-.292,1.83-.545,2.1-1.195V28.982a4.309,4.309,0,0,1-1.047-2.046,1.7,1.7,0,0,1-1.132-1.516c-.008-.721.156-1.048.372-1.229a6.206,6.206,0,0,1-.353-2.044,3.773,3.773,0,0,1,1.021-2.709A5.775,5.775,0,0,1,23.057,18a.362.362,0,0,1,.324.208l.27.56a2.612,2.612,0,0,1,1.721.814,3.956,3.956,0,0,1,.98,2.752,5.426,5.426,0,0,1-.365,1.877,1.361,1.361,0,0,1,.376,1.167,1.732,1.732,0,0,1-1.135,1.557,4.427,4.427,0,0,1-.967,1.962l-.08.284v1.455c.273.65,1.122.9,2.1,1.195C27.87,32.3,29.844,32.892,30,35.6A.383.383,0,0,1,29.9,35.882Z" transform="translate(-14 -18)" fill="#6a6a7c"/>
    </g>
  </g>
</svg>
