<svg id="qr_code" data-name="qr code" xmlns="http://www.w3.org/2000/svg" width="16.02" height="16.02" viewBox="0 0 16.02 16.02">
  <path id="Path_123" data-name="Path 123" d="M8.643,4h-3.1A1.547,1.547,0,0,0,4,5.548v3.1a1.547,1.547,0,0,0,1.548,1.548h3.1a1.547,1.547,0,0,0,1.548-1.548v-3.1A1.547,1.547,0,0,0,8.643,4Zm0,4.643h-3.1v-3.1h3.1Zm-.774-.774H6.322V6.322H7.869Z" transform="translate(-4 -4)" fill="#6a6a7c"/>
  <path id="Path_124" data-name="Path 124" d="M8.643,18h-3.1A1.547,1.547,0,0,0,4,19.548v3.1a1.547,1.547,0,0,0,1.548,1.548h3.1a1.547,1.547,0,0,0,1.548-1.548v-3.1A1.547,1.547,0,0,0,8.643,18Zm0,4.643h-3.1v-3.1h3.1Zm-.774-.774H6.322V20.322H7.869Z" transform="translate(-4 -8.171)" fill="#6a6a7c"/>
  <path id="Path_125" data-name="Path 125" d="M22.643,4h-3.1A1.547,1.547,0,0,0,18,5.548v3.1a1.547,1.547,0,0,0,1.548,1.548h3.1a1.547,1.547,0,0,0,1.548-1.548v-3.1A1.547,1.547,0,0,0,22.643,4Zm0,4.643h-3.1v-3.1h3.1Zm-.774-.774H20.322V6.322h1.548Z" transform="translate(-8.171 -4)" fill="#6a6a7c"/>
  <rect id="Rectangle_46" data-name="Rectangle 46" width="1.548" height="1.548" transform="translate(7.236 1.548)" fill="#6a6a7c"/>
  <rect id="Rectangle_47" data-name="Rectangle 47" width="1.548" height="1.548" transform="translate(7.236 4.342)" fill="#6a6a7c"/>
  <rect id="Rectangle_48" data-name="Rectangle 48" width="1.548" height="1.548" transform="translate(7.236 7.236)" fill="#6a6a7c"/>
  <rect id="Rectangle_49" data-name="Rectangle 49" width="1.548" height="1.548" transform="translate(4.342 7.236)" fill="#6a6a7c"/>
  <rect id="Rectangle_50" data-name="Rectangle 50" width="1.548" height="1.548" transform="translate(1.548 7.236)" fill="#6a6a7c"/>
  <rect id="Rectangle_51" data-name="Rectangle 51" width="1.548" height="1.548" transform="translate(10.131 7.236)" fill="#6a6a7c"/>
  <rect id="Rectangle_52" data-name="Rectangle 52" width="1.548" height="1.548" transform="translate(12.925 7.236)" fill="#6a6a7c"/>
  <rect id="Rectangle_53" data-name="Rectangle 53" width="1.548" height="1.548" transform="translate(8.683 8.683)" fill="#6a6a7c"/>
  <rect id="Rectangle_54" data-name="Rectangle 54" width="1.548" height="1.548" transform="translate(11.578 8.683)" fill="#6a6a7c"/>
  <rect id="Rectangle_55" data-name="Rectangle 55" width="1.548" height="1.548" transform="translate(10.131 10.131)" fill="#6a6a7c"/>
  <rect id="Rectangle_56" data-name="Rectangle 56" width="1.548" height="1.548" transform="translate(7.236 10.131)" fill="#6a6a7c"/>
  <rect id="Rectangle_57" data-name="Rectangle 57" width="1.548" height="1.548" transform="translate(8.683 11.578)" fill="#6a6a7c"/>
  <rect id="Rectangle_58" data-name="Rectangle 58" width="1.548" height="1.548" transform="translate(10.131 12.925)" fill="#6a6a7c"/>
  <rect id="Rectangle_59" data-name="Rectangle 59" width="1.548" height="1.548" transform="translate(8.683 14.472)" fill="#6a6a7c"/>
  <rect id="Rectangle_60" data-name="Rectangle 60" width="1.548" height="1.548" transform="translate(14.472 8.683)" fill="#6a6a7c"/>
  <rect id="Rectangle_61" data-name="Rectangle 61" width="1.548" height="1.548" transform="translate(14.472 11.578)" fill="#6a6a7c"/>
  <rect id="Rectangle_62" data-name="Rectangle 62" width="1.548" height="1.548" transform="translate(11.578 11.578)" fill="#6a6a7c"/>
  <rect id="Rectangle_63" data-name="Rectangle 63" width="1.548" height="1.548" transform="translate(11.578 14.472)" fill="#6a6a7c"/>
  <rect id="Rectangle_64" data-name="Rectangle 64" width="1.548" height="1.548" transform="translate(12.925 12.925)" fill="#6a6a7c"/>
  <rect id="Rectangle_65" data-name="Rectangle 65" width="1.548" height="1.548" transform="translate(12.925 10.131)" fill="#6a6a7c"/>
  <rect id="Rectangle_66" data-name="Rectangle 66" width="1.548" height="1.548" transform="translate(7.236 12.925)" fill="#6a6a7c"/>
</svg>
