<svg xmlns="http://www.w3.org/2000/svg" width="21.522" height="17.5" viewBox="0 0 21.522 17.5">
  <path id="refresh" d="M2.057,9.167H.249a.246.246,0,0,1-.219-.132A.245.245,0,0,1,.041,8.78l2.667-4a.249.249,0,0,1,.416,0L5.792,8.784a.247.247,0,0,1,.012.255.25.25,0,0,1-.22.132H3.9a6.418,6.418,0,0,0,10.52,3.961l.054-.045A.916.916,0,1,1,15.6,14.531a8.194,8.194,0,0,1-4.659,1.939q-.35.028-.695.029A8.262,8.262,0,0,1,2.057,9.167Zm15.32,2.551-2.667-4a.251.251,0,0,1,.208-.389H16.6A6.42,6.42,0,0,0,6.082,3.369a.945.945,0,0,1-.666.22.918.918,0,0,1-.53-1.61A8.235,8.235,0,0,1,10.238,0h.012a8.21,8.21,0,0,1,8.2,7.33h1.808a.251.251,0,0,1,.208.389l-2.668,4a.251.251,0,0,1-.416,0Z" transform="translate(0.51 0.5)" fill="#6a6a7c" stroke="rgba(0,0,0,0)" stroke-width="1"/>
</svg>
