<svg xmlns="http://www.w3.org/2000/svg" width="16" height="16" viewBox="0 0 16 16">
  <path id="search" d="M-386.43,2423.569l-3.777-3.778a6.324,6.324,0,0,0,.964-3.384,6.461,6.461,0,0,0-6.425-6.406,6.337,6.337,0,0,0-4.482,1.856,6.379,6.379,0,0,0-1.85,4.494,6.369,6.369,0,0,0,1.87,4.537,6.381,6.381,0,0,0,4.553,1.886h.016a6.327,6.327,0,0,0,3.358-.975l3.763,3.767a1.424,1.424,0,0,0,1.024.436,1.422,1.422,0,0,0,1.025-.439,1.414,1.414,0,0,0,.39-1.011A1.4,1.4,0,0,0-386.43,2423.569Zm-9.23-11.862.014.533a4.138,4.138,0,0,1,4.087,4.04,4.154,4.154,0,0,1-4.04,4.257,4.138,4.138,0,0,1-2.943-1.229,4.112,4.112,0,0,1-1.221-2.908,4.108,4.108,0,0,1,1.191-2.931,4.111,4.111,0,0,1,2.915-1.229l0-.533Z" transform="translate(402 -2410)" fill="#6a6a7c"/>
</svg>
