<svg xmlns="http://www.w3.org/2000/svg" width="20" height="20" viewBox="0 0 20 20">
  <g id="selected" transform="translate(1214 2649)">
    <g id="Rectangle_2528" data-name="Rectangle 2528" transform="translate(-1827 -3171.5)">
      <path id="Path_25819" data-name="Path 25819" d="M623,527.5h0a5,5,0,0,1,5,5h0a5,5,0,0,1-5,5h0a5,5,0,0,1-5-5h0A5,5,0,0,1,623,527.5Z" fill="#6a6a7c"/>
    </g>
    <g id="Group_5810" data-name="Group 5810" transform="translate(-1827 -3171.5)">
      <path id="Path_25818" data-name="Path 25818" d="M623,542.5a10,10,0,1,1,10-10A10.011,10.011,0,0,1,623,542.5Zm0-19a9,9,0,1,0,9,9A9.01,9.01,0,0,0,623,523.5Z" fill="#6a6a7c"/>
    </g>
  </g>
</svg>
