<svg xmlns="http://www.w3.org/2000/svg" width="17" height="17" viewBox="0 0 17 17">
  <path id="share" d="M-541.833,3483.334a2.807,2.807,0,0,0-1.754.624l-6.754-3.377c0-.028.008-.054.008-.081s-.007-.054-.008-.081l6.754-3.377a2.806,2.806,0,0,0,1.754.625,2.833,2.833,0,0,0,2.833-2.834,2.833,2.833,0,0,0-2.833-2.833,2.833,2.833,0,0,0-2.833,2.833c0,.027.007.053.009.082l-6.754,3.376a2.8,2.8,0,0,0-1.754-.624A2.833,2.833,0,0,0-556,3480.5a2.833,2.833,0,0,0,2.833,2.833,2.8,2.8,0,0,0,1.754-.626l6.754,3.379c0,.027-.009.053-.009.081a2.833,2.833,0,0,0,2.833,2.832,2.833,2.833,0,0,0,2.833-2.832A2.834,2.834,0,0,0-541.833,3483.334Z" transform="translate(556 -3472)" fill="#6a6a7c"/>
</svg>
