<svg xmlns="http://www.w3.org/2000/svg" width="78.594" height="17.241" viewBox="0 0 78.594 17.241">
  <path id="Union_32" data-name="Union 32" d="M61.355,8.121a8.12,8.12,0,1,1,8.119,8.12A8.129,8.129,0,0,1,61.355,8.121Zm4.044,0a4.076,4.076,0,1,0,4.075-4.077A4.08,4.08,0,0,0,65.4,8.121ZM53.433,15.578a2.109,2.109,0,0,1-.628-1.545v-6.2A3.238,3.238,0,0,0,51.682,5.6a3.53,3.53,0,0,0-2.567-1.156A3.923,3.923,0,0,0,46.57,5.583a3.034,3.034,0,0,0-1.111,2.251v6.2a2,2,0,0,1-.677,1.559,1.967,1.967,0,0,1-1.53.649,2.088,2.088,0,0,1-1.592-.678,1.967,1.967,0,0,1-.648-1.53v-5.9a7.8,7.8,0,0,1,.321-2.244,8.687,8.687,0,0,1,.919-2.019A8.306,8.306,0,0,1,45.128,1.1,8.029,8.029,0,0,1,49.1,0a9.09,9.09,0,0,1,2.254.356,7.789,7.789,0,0,1,1.994.925,8.416,8.416,0,0,1,2.825,2.862,7.645,7.645,0,0,1,1.04,3.927v5.963a2.109,2.109,0,0,1-.628,1.545,2.211,2.211,0,0,1-3.156,0ZM20.507,8.121a8.12,8.12,0,1,1,8.12,8.12A8.129,8.129,0,0,1,20.507,8.121Zm4.043,0a4.077,4.077,0,1,0,4.077-4.077A4.081,4.081,0,0,0,24.549,8.121ZM12.421,15.578a2.113,2.113,0,0,1-.628-1.545v-6.2A3.24,3.24,0,0,0,10.67,5.6,3.53,3.53,0,0,0,8.1,4.448,3.923,3.923,0,0,0,5.558,5.583,3.034,3.034,0,0,0,4.447,7.834v6.2a2,2,0,0,1-.677,1.559,1.967,1.967,0,0,1-1.53.649,2.087,2.087,0,0,1-1.592-.678A1.967,1.967,0,0,1,0,14.033v-5.9A7.8,7.8,0,0,1,.321,5.893a8.654,8.654,0,0,1,.92-2.019A8.319,8.319,0,0,1,4.116,1.1,8.029,8.029,0,0,1,8.093,0a9.09,9.09,0,0,1,2.254.356,7.761,7.761,0,0,1,1.994.925,8.406,8.406,0,0,1,2.824,2.862,7.638,7.638,0,0,1,1.041,3.927v5.963a2.114,2.114,0,0,1-.629,1.545,2.211,2.211,0,0,1-3.156,0Z" transform="translate(0.5 0.5)" fill="#35cdfa" stroke="rgba(0,0,0,0)" stroke-width="1"/>
</svg>
