<svg xmlns="http://www.w3.org/2000/svg" width="17.477" height="17.478" viewBox="0 0 17.477 17.478">
  <path id="website" d="M585.049,521.361a8.739,8.739,0,1,0,8.738,8.739A8.75,8.75,0,0,0,585.049,521.361Zm7.738,8.739c0,.088-.01.174-.013.261h-2.738c0-.087.007-.172.007-.261a11.569,11.569,0,0,0-2.115-7.178A7.748,7.748,0,0,1,592.787,530.1Zm-11.732,0c0-3.867,1.555-7.173,3.494-7.668v7.929h-3.487C581.06,530.274,581.055,530.188,581.055,530.1Zm3.494,1.261v6.407c-1.724-.439-3.14-3.1-3.434-6.407Zm1,6.407v-6.407h3.433C588.689,534.665,587.272,537.329,585.549,537.768Zm0-7.407v-7.929c1.939.495,3.494,3.8,3.494,7.668,0,.088-.005.174-.007.261Zm-3.379-7.439a11.569,11.569,0,0,0-2.115,7.178c0,.089.006.174.007.261h-2.739c0-.087-.013-.173-.013-.261A7.747,7.747,0,0,1,582.17,522.922Zm-4.749,8.439h2.689a10.808,10.808,0,0,0,2.06,5.917A7.757,7.757,0,0,1,577.421,531.361Zm10.507,5.917a10.815,10.815,0,0,0,2.059-5.917h2.688A7.754,7.754,0,0,1,587.928,537.278Z" transform="translate(-576.31 -521.361)" fill="#6a6a7c"/>
</svg>
