<svg xmlns="http://www.w3.org/2000/svg" xmlns:xlink="http://www.w3.org/1999/xlink" width="200.089" height="200.089" viewBox="0 0 200.089 200.089">
  <defs>
    <filter id="Bg" x="0" y="0" width="200.089" height="200.089" filterUnits="userSpaceOnUse">
      <feOffset dy="10" input="SourceAlpha"/>
      <feGaussianBlur stdDeviation="20" result="blur"/>
      <feFlood flood-color="#525572" flood-opacity="0.2"/>
      <feComposite operator="in" in2="blur"/>
      <feComposite in="SourceGraphic"/>
    </filter>
    <filter id="Bg-2" x="11.441" y="11.441" width="177.206" height="177.206" filterUnits="userSpaceOnUse">
      <feOffset dy="10" input="SourceAlpha"/>
      <feGaussianBlur stdDeviation="20" result="blur-2"/>
      <feFlood flood-color="#525572" flood-opacity="0.2"/>
      <feComposite operator="in" in2="blur-2"/>
      <feComposite in="SourceGraphic"/>
    </filter>
    <linearGradient id="linear-gradient" x1="0.5" x2="0.5" y2="1" gradientUnits="objectBoundingBox">
      <stop offset="0" stop-color="#f54ea0" stop-opacity="0"/>
      <stop offset="1" stop-color="#eb4d9c" stop-opacity="0.302"/>
    </linearGradient>
    <filter id="Bg-3" x="78.891" y="71.048" width="41.162" height="41.162" filterUnits="userSpaceOnUse">
      <feOffset dy="2" input="SourceAlpha"/>
      <feGaussianBlur stdDeviation="4" result="blur-3"/>
      <feFlood flood-color="#525572" flood-opacity="0.6"/>
      <feComposite operator="in" in2="blur-3"/>
      <feComposite in="SourceGraphic"/>
    </filter>
  </defs>
  <g id="Your_Location" data-name="Your Location" transform="translate(55.147 132.592) rotate(-99)">
    <g transform="matrix(-0.16, 0.99, -0.99, -0.16, 139.59, -33.73)" filter="url(#Bg)">
      <rect id="Bg-4" data-name="Bg" width="70" height="70" rx="35" transform="translate(70.95 130.09) rotate(-99)" fill="#f54ea0" opacity="0.1"/>
    </g>
    <g transform="matrix(-0.16, 0.99, -0.99, -0.16, 139.59, -33.73)" filter="url(#Bg-2)">
      <rect id="Bg-5" data-name="Bg" width="50" height="50" rx="25" transform="translate(79.26 118.65) rotate(-99)" fill="#f54ea0" opacity="0.1"/>
    </g>
    <path id="Rectangle" d="M0,0H55L35,50H20Z" transform="translate(8)" fill="url(#linear-gradient)"/>
    <g transform="matrix(-0.16, 0.99, -0.99, -0.16, 139.59, -33.73)" filter="url(#Bg-3)">
      <g id="Bg-6" data-name="Bg" transform="translate(93.24 98.21) rotate(-99)" fill="#f54ea0" stroke="#fff" stroke-miterlimit="10" stroke-width="2">
        <rect width="15" height="15" rx="7.5" stroke="none"/>
        <rect x="1" y="1" width="13" height="13" rx="6.5" fill="none"/>
      </g>
    </g>
  </g>
</svg>
